<svg width="240" height="240" viewBox="0 0 240 240" fill="none" xmlns="http://www.w3.org/2000/svg">
<rect width="240" height="240" rx="50" fill="#5D1E21"/>
<path d="M172.601 126.859V130.807H163.855C165.713 132.87 166.642 135.528 166.642 138.778C166.642 142.39 165.3 145.383 162.617 147.756C159.986 150.078 156.09 151.238 150.931 151.238C147.371 151.238 144.353 150.645 141.876 149.458V152.09C141.876 153.689 142.675 154.643 144.274 154.953L158.825 157.662C161.25 158.126 163.443 158.746 165.403 159.52C167.364 160.242 168.937 161.299 170.124 162.692C171.311 164.034 171.904 165.891 171.904 168.265C171.904 170.793 171.079 173.115 169.428 175.23C167.777 177.397 165.326 179.126 162.075 180.416C158.876 181.757 154.877 182.428 150.079 182.428C145.952 182.428 142.675 181.989 140.25 181.112C137.825 180.287 136.096 179.204 135.064 177.862C134.084 176.521 133.595 175.102 133.595 173.605C133.595 171.748 134.214 169.864 135.452 167.955C136.742 166.098 138.316 164.602 140.173 163.467C138.573 162.848 137.413 162.048 136.69 161.067C135.968 160.087 135.607 159.03 135.606 157.895C135.606 156.863 135.865 155.907 136.381 155.03C136.948 154.102 137.619 153.173 138.393 152.244L140.947 148.994C137.181 146.827 135.297 143.422 135.297 138.778C135.297 135.063 136.613 132.044 139.244 129.723C141.927 127.401 145.848 126.24 151.008 126.24C153.639 126.24 155.936 126.55 157.896 127.169C159.909 127.788 161.56 128.665 162.85 129.8C164.501 129.542 166.049 129.129 167.493 128.562C168.989 127.942 170.331 127.117 171.518 126.085L172.601 126.859ZM141.798 163.931C141.076 164.963 140.483 166.124 140.019 167.414C139.554 168.755 139.321 169.994 139.321 171.129C139.321 174.173 140.25 176.469 142.107 178.017C144.016 179.564 147.009 180.339 151.085 180.339C155.367 180.339 158.593 179.642 160.76 178.249C162.927 176.856 164.01 174.895 164.01 172.367C164.01 170.923 163.468 169.761 162.385 168.884C161.353 168.007 159.573 167.336 157.045 166.872L143.036 164.24L141.798 163.931ZM81.5801 136.921H90.248V138.469H81.5029V166.33C81.5029 168.136 81.8894 169.503 82.6631 170.432C83.4885 171.36 84.5207 171.825 85.7588 171.825C86.8423 171.825 87.7975 171.567 88.623 171.051C89.4485 170.483 90.2742 169.735 91.0996 168.807L91.873 169.581C90.8412 171.335 89.4227 172.728 87.6172 173.76C85.8113 174.792 83.6179 175.308 81.0381 175.308C77.736 175.308 75.1563 174.482 73.2988 172.831C71.4931 171.18 70.5899 168.549 70.5898 164.938V138.469H65.25V137.694L67.1074 137.385C68.7068 137.024 70.0739 136.508 71.209 135.837C72.3957 135.166 73.5573 134.263 74.6924 133.128L81.0381 126.085H81.8125L81.5801 136.921ZM50.3486 116.278C53.0831 116.278 55.663 116.64 58.0879 117.362C60.5644 118.085 62.7059 119.064 64.5117 120.303L64.0469 129.59H63.2734L60.0996 123.786C59.2225 121.98 58.3459 120.716 57.4688 119.993C56.5916 119.219 55.5853 118.678 54.4502 118.368C53.7795 118.162 53.1603 118.033 52.5928 117.981C52.0252 117.878 51.3029 117.826 50.4258 117.826C47.7944 117.826 45.5754 118.601 43.7695 120.148C41.9639 121.645 41.0605 123.683 41.0605 126.263C41.0606 128.894 41.7575 131.009 43.1504 132.608C44.5435 134.156 46.5817 135.55 49.2646 136.788L52.8252 138.336C57.778 140.503 61.3379 142.824 63.5049 145.301C65.6719 147.726 66.7558 150.874 66.7559 154.743C66.7559 159.284 65.0272 162.998 61.5703 165.888C58.165 168.725 53.3151 170.145 47.0205 170.145C44.1829 170.145 41.2934 169.784 38.3525 169.062C35.4117 168.391 32.9606 167.488 31 166.353L31.3867 155.827H32.1611L34.5596 160.857C35.2819 162.302 36.0563 163.592 36.8818 164.728C37.7073 165.811 38.8426 166.662 40.2871 167.281C41.3188 167.797 42.299 168.158 43.2275 168.364C44.2078 168.519 45.2918 168.597 46.4785 168.597C49.6258 168.597 52.1024 167.746 53.9082 166.043C55.7657 164.34 56.6943 162.147 56.6943 159.464C56.6943 156.936 56.0751 154.975 54.8369 153.582C53.5986 152.137 51.6122 150.745 48.8779 149.403L45.7051 148.01C41.2678 146.049 37.785 143.805 35.2568 141.276C32.7802 138.697 31.542 135.291 31.542 131.061C31.542 128.017 32.3156 125.386 33.8633 123.167C35.4627 120.948 37.6554 119.245 40.4414 118.059C43.2792 116.872 46.5821 116.278 50.3486 116.278ZM192.522 125.862C195.876 125.862 198.74 126.559 201.113 127.952C203.486 129.294 205.292 131.151 206.53 133.524C207.82 135.846 208.465 138.504 208.465 141.496C208.465 142.064 208.439 142.657 208.388 143.276C208.336 143.844 208.233 144.36 208.078 144.824H185.015C185.066 150.396 186.047 154.421 187.956 156.897C189.917 159.322 192.806 160.535 196.624 160.535C199.204 160.535 201.293 160.122 202.893 159.297C204.492 158.471 205.989 157.259 207.382 155.659L208.155 156.355C206.556 159.193 204.415 161.412 201.732 163.012C199.101 164.611 195.928 165.41 192.213 165.41C188.55 165.41 185.299 164.637 182.461 163.089C179.623 161.489 177.404 159.219 175.805 156.278C174.205 153.337 173.405 149.829 173.405 145.753C173.405 141.522 174.335 137.936 176.192 134.995C178.05 132.003 180.423 129.731 183.312 128.184C186.253 126.636 189.324 125.862 192.522 125.862ZM111.278 124.463C115.87 124.463 119.405 125.598 121.882 127.868C124.41 130.087 125.674 133.725 125.674 138.781V155.885C125.674 158.207 126.758 159.368 128.925 159.368H130.627L131.324 159.987C130.344 161.226 129.26 162.18 128.073 162.851C126.938 163.521 125.313 163.856 123.197 163.856C120.927 163.856 119.122 163.34 117.78 162.309C116.49 161.225 115.638 159.806 115.226 158.052C113.678 159.703 112.079 161.122 110.428 162.309C108.828 163.444 106.738 164.012 104.158 164.012C101.166 164.012 98.638 163.16 96.5742 161.457C94.5621 159.754 93.5558 157.304 93.5557 154.105C93.5557 151.68 94.7939 149.461 97.2705 147.449C99.7471 145.385 103.643 143.838 108.957 142.806C109.783 142.651 110.711 142.496 111.743 142.341C112.775 142.134 113.858 141.928 114.993 141.722V135.607C114.993 132.099 114.555 129.649 113.678 128.256C112.852 126.811 111.536 126.089 109.73 126.089C108.492 126.089 107.512 126.502 106.79 127.327C106.068 128.101 105.603 129.468 105.396 131.429L105.242 132.28C105.139 134.498 104.597 136.123 103.617 137.155C102.637 138.187 101.424 138.704 99.9795 138.704C98.638 138.704 97.5285 138.29 96.6514 137.465C95.7744 136.639 95.336 135.531 95.3359 134.138C95.3359 132.022 96.0582 130.242 97.5029 128.797C98.9992 127.352 100.96 126.269 103.385 125.547C105.81 124.825 108.441 124.463 111.278 124.463ZM113.445 143.579C112.93 143.682 112.336 143.786 111.666 143.889C109.293 144.508 107.383 145.566 105.938 147.062C104.546 148.507 103.849 150.468 103.849 152.944C103.849 155.06 104.339 156.659 105.319 157.742C106.3 158.774 107.487 159.29 108.88 159.29C109.912 159.29 110.866 159.058 111.743 158.594C112.672 158.078 113.755 157.304 114.993 156.272V143.27L113.445 143.579ZM151.008 127.788C149.099 127.788 147.654 128.639 146.674 130.342C145.694 131.993 145.203 134.805 145.203 138.778C145.203 142.751 145.642 145.563 146.52 147.214C147.448 148.865 148.893 149.69 150.854 149.69C152.917 149.69 154.413 148.839 155.342 147.137C156.322 145.434 156.812 142.596 156.812 138.623C156.812 134.65 156.322 131.864 155.342 130.265C154.413 128.614 152.968 127.788 151.008 127.788ZM192.29 127.41C190.794 127.41 189.503 127.875 188.42 128.804C187.388 129.681 186.562 131.28 185.943 133.602C185.376 135.872 185.066 139.097 185.015 143.276H198.249C198.765 137.652 198.559 133.602 197.63 131.125C196.701 128.649 194.921 127.41 192.29 127.41ZM68.7754 60.1729C75.0697 60.1729 79.6103 61.3337 82.3965 63.6553C85.1827 65.9255 86.5762 68.8157 86.5762 72.3242C86.5761 74.9555 85.5442 77.3546 83.4805 79.5215C81.4682 81.6369 77.9854 83.1336 73.0322 84.0107C78.7078 84.6299 82.8618 86.1256 85.4932 88.499C88.1244 90.8208 89.4395 93.659 89.4395 97.0127C89.4394 98.6636 89.0787 100.34 88.3564 102.043C87.6341 103.694 86.3958 105.216 84.6416 106.609C82.939 108.002 80.5912 109.138 77.5986 110.015C74.6061 110.84 70.8137 111.253 66.2217 111.253H46.5635V110.479L47.957 109.938C48.9886 109.525 49.6847 109.009 50.0459 108.39C50.4586 107.771 50.665 106.945 50.665 105.913V65.5127C50.665 64.4294 50.4586 63.578 50.0459 62.959C49.6847 62.34 48.9887 61.8494 47.957 61.4883L46.5635 60.9473V60.1729H68.7754ZM110.892 71.7051C115.484 71.7051 119.019 72.8401 121.495 75.1104C124.023 77.329 125.287 80.9664 125.287 86.0225V103.127C125.287 105.448 126.371 106.609 128.537 106.609H130.24L130.937 107.229C129.956 108.467 128.873 109.421 127.687 110.092C126.551 110.763 124.926 111.099 122.811 111.099C120.54 111.099 118.734 110.582 117.393 109.55C116.103 108.466 115.252 107.048 114.839 105.294C113.291 106.945 111.691 108.363 110.04 109.55C108.441 110.685 106.351 111.253 103.771 111.253C100.779 111.253 98.2504 110.402 96.1865 108.699C94.1744 106.997 93.169 104.546 93.1689 101.347C93.1689 98.9217 94.4072 96.7027 96.8838 94.6904C99.3604 92.6267 103.256 91.0788 108.57 90.0469C109.396 89.8921 110.325 89.7378 111.356 89.583C112.388 89.3767 113.472 89.1702 114.606 88.9639V82.8496C114.606 79.3412 114.168 76.8902 113.291 75.4971C112.465 74.0524 111.15 73.3301 109.344 73.3301C108.106 73.3301 107.126 73.7429 106.403 74.5684C105.681 75.3423 105.216 76.7094 105.01 78.6699L104.855 79.5215C104.752 81.7401 104.21 83.3655 103.229 84.3975C102.249 85.4292 101.036 85.9453 99.5918 85.9453C98.2506 85.9452 97.1416 85.5323 96.2646 84.707C95.3875 83.8815 94.9482 82.772 94.9482 81.3789C94.9482 79.2637 95.6708 77.4837 97.1152 76.0391C98.6114 74.5945 100.572 73.5104 102.997 72.7881C105.422 72.0658 108.054 71.7051 110.892 71.7051ZM150.925 71.7051C153.917 71.7051 156.445 72.1946 158.509 73.1748C160.573 74.1551 162.147 75.4454 163.23 77.0449C164.314 78.5927 164.855 80.2183 164.855 81.9209C164.855 83.3654 164.417 84.5007 163.54 85.3262C162.663 86.1 161.528 86.4872 160.135 86.4873C158.638 86.4873 157.426 85.9448 156.497 84.8613C155.568 83.7778 155.027 82.3587 154.872 80.6045C154.82 79.4696 154.846 78.5151 154.949 77.7412C155.052 76.9157 155.052 76.0901 154.949 75.2646C154.743 74.3879 154.407 73.8206 153.943 73.5625C153.531 73.253 152.937 73.0977 152.163 73.0977C149.016 73.0977 146.565 74.4649 144.811 77.1992C143.108 79.9338 142.257 84.2942 142.257 90.2793C142.257 95.4904 143.211 99.4892 145.12 102.275C147.081 105.01 150.073 106.377 154.098 106.377C156.523 106.377 158.483 105.939 159.979 105.062C161.476 104.184 162.92 102.868 164.313 101.114L165.088 101.733C163.798 104.778 161.811 107.125 159.128 108.776C156.445 110.427 153.272 111.253 149.608 111.253C146.1 111.253 142.901 110.505 140.012 109.009C137.174 107.461 134.904 105.242 133.201 102.353C131.55 99.4116 130.725 95.8255 130.725 91.5947C130.725 87.4155 131.628 83.855 133.434 80.9141C135.291 77.9217 137.742 75.6513 140.786 74.1035C143.882 72.5041 147.262 71.7051 150.925 71.7051ZM181.879 57.6963L181.646 68.5312V106.3C181.647 108.364 182.499 109.653 184.201 110.169L185.284 110.479V111.253H166.787V110.479L167.948 110.092C169.702 109.524 170.579 108.26 170.579 106.3V64.8936C170.579 63.8618 170.373 63.0882 169.96 62.5723C169.547 62.0564 168.825 61.6435 167.793 61.334L166.787 61.1016V60.3281L180.95 57L181.879 57.6963ZM206.104 74.8008L203.781 75.4199C202.646 75.7811 201.717 76.2195 200.995 76.7354C200.324 77.1997 199.499 77.8701 198.519 78.7471L189.851 86.874L203.704 106.145C204.53 107.28 205.304 108.157 206.026 108.776C206.749 109.395 207.678 109.911 208.812 110.324L209.122 110.479V111.253H195.5L181.725 91.9043L196.042 78.6699C196.713 78.0508 197.1 77.4061 197.203 76.7354C197.358 76.0131 196.919 75.4971 195.888 75.1875L194.571 74.8008V74.0264H206.104V74.8008ZM62.1201 109.705H65.9893C69.8589 109.705 72.7226 108.673 74.5801 106.609C76.4891 104.546 77.4433 101.321 77.4434 96.9355C77.4434 92.8081 76.541 89.8666 74.7354 88.1123C72.9295 86.3581 69.9625 85.4805 65.835 85.4805H62.1201V109.705ZM113.059 90.8213C112.543 90.9245 111.949 91.0277 111.278 91.1309C108.905 91.75 106.996 92.8076 105.552 94.3037C104.159 95.7484 103.462 97.709 103.462 100.186C103.462 102.301 103.952 103.901 104.933 104.984C105.913 106.016 107.099 106.532 108.492 106.532C109.524 106.532 110.479 106.299 111.356 105.835C112.285 105.319 113.368 104.545 114.606 103.514V90.5117L113.059 90.8213ZM62.1201 83.9326H65.4473C68.9042 83.9326 71.3816 83.1336 72.8779 81.5342C74.4258 79.9347 75.1992 77.1477 75.1992 73.1748C75.1992 69.0473 74.5024 66.1068 73.1094 64.3525C71.7163 62.5983 69.4462 61.7207 66.2988 61.7207H62.1201V83.9326Z" fill="#EDCB83"/>
</svg>
