<svg id="e8AzhHXDIPx1" xmlns="http://www.w3.org/2000/svg" xmlns:xlink="http://www.w3.org/1999/xlink" viewBox="0 0 1920 1080" preserveAspectRatio="none" shape-rendering="geometricPrecision" text-rendering="geometricPrecision"><defs><filter id="e8AzhHXDIPx30-filter" x="-150%" y="-150%" width="400%" height="400%"><feGaussianBlur id="e8AzhHXDIPx30-filter-drop-shadow-0-blur" in="SourceAlpha" stdDeviation="0.168675,0.168675"/><feOffset id="e8AzhHXDIPx30-filter-drop-shadow-0-offset" dx="1.5" dy="1.5" result="tmp"/><feFlood id="e8AzhHXDIPx30-filter-drop-shadow-0-flood" flood-color="rgba(0,0,0,0.2)"/><feComposite id="e8AzhHXDIPx30-filter-drop-shadow-0-composite" operator="in" in2="tmp"/><feMerge id="e8AzhHXDIPx30-filter-drop-shadow-0-merge" result="result"><feMergeNode id="e8AzhHXDIPx30-filter-drop-shadow-0-merge-node-1"/><feMergeNode id="e8AzhHXDIPx30-filter-drop-shadow-0-merge-node-2" in="SourceGraphic"/></feMerge></filter><filter id="e8AzhHXDIPx67-filter" x="-150%" y="-150%" width="400%" height="400%"><feGaussianBlur id="e8AzhHXDIPx67-filter-drop-shadow-0-blur" in="SourceAlpha" stdDeviation="0.168675,0.168675"/><feOffset id="e8AzhHXDIPx67-filter-drop-shadow-0-offset" dx="1.5" dy="1.5" result="tmp"/><feFlood id="e8AzhHXDIPx67-filter-drop-shadow-0-flood" flood-color="rgba(0,0,0,0.2)"/><feComposite id="e8AzhHXDIPx67-filter-drop-shadow-0-composite" operator="in" in2="tmp"/><feMerge id="e8AzhHXDIPx67-filter-drop-shadow-0-merge" result="result"><feMergeNode id="e8AzhHXDIPx67-filter-drop-shadow-0-merge-node-1"/><feMergeNode id="e8AzhHXDIPx67-filter-drop-shadow-0-merge-node-2" in="SourceGraphic"/></feMerge></filter></defs><g transform="translate(777.09607 99.287843)" clip-path="url(#e8AzhHXDIPx104)"><g><g transform="matrix(5 0 0 5 -703.96497 -109.577619)" filter="url(#e8AzhHXDIPx30-filter)"><g><g><g><path d="M148.793,1.47547C85.7251,33.3656,24.0703,14.8532,1.12634,1.61069L117.435,-58.8486L148.793,1.47547Z" fill="#5d1e21"/><g mask="url(#e8AzhHXDIPx37)"><path d="M148.793,1.47547C85.7251,33.3656,24.0703,14.8532,1.12634,1.61069L117.435,-58.8486L148.793,1.47547Z" fill="none" stroke="#dfab36" stroke-width="6.747" stroke-linecap="round" stroke-linejoin="round" stroke-miterlimit="1" stroke-dasharray="0.34,7.59"/><mask id="e8AzhHXDIPx37" mask-type="luminance" x="-150%" y="-150%" height="400%" width="400%"><rect width="158.385" height="131.544" rx="0" ry="0" transform="translate(-4.19304 -64.2427)" fill="#fff"/><path d="M148.793,1.47547C85.7251,33.3656,24.0703,14.8532,1.12634,1.61069L117.435,-58.8486L148.793,1.47547Z"/></mask></g></g><path d="M113.754,0.704284C69.0824,12.6561,33.1559,2.42827,20.7765,-4.17964l8.3575-4.34438c25.9461,8.669872,53.937,9.83245,79.496-.62927l5.124,9.857574Z" fill="#4d191c"/><path d="M105.558,-14.6683c-44.5004,9.76041-47.9709,4.83883-60.3503-1.7691c25.9461,8.66989,45.3596,3.63,59.6963.5101l.654,1.259Z" fill="#4d191c"/><path d="M123.332,10.4914C44.203,24.5782,3.03445,2.79646,9.20218,-2.5532C56.976,17.4278,96.4567,13.9634,121.952,9.47334l1.38,1.01806Z" fill="#4d191c"/><path d="M117.874,5.0963C73.373,14.8568,69.9025,9.93518,57.5232,3.32727c25.946,8.66983,45.3598,3.62995,59.6958.51005l.655,1.25898Z" fill="#4d191c"/></g><g><path d="M-100.023,93.5617C-1.31619,92.4544,63.1691,29.791,83.0734,-1.40234h-183.0964v94.96404Z" fill="#5d1e21"/><g mask="url(#e8AzhHXDIPx48)"><path d="M-100.023,93.5617C-1.31619,92.4544,63.1691,29.791,83.0734,-1.40234h-183.0964v94.96404Z" fill="none" stroke="#dfab36" stroke-width="11.4699" stroke-linecap="round" stroke-linejoin="round" stroke-miterlimit="1" stroke-dasharray="0.42,12.23"/><mask id="e8AzhHXDIPx48" mask-type="luminance" x="-150%" y="-150%" height="400%" width="400%"><rect width="195" height="107" rx="0" ry="0" transform="translate(-106.023 -7.40234)" fill="#fff"/><path d="M-100.023,93.5617C-1.31619,92.4544,63.1691,29.791,83.0734,-1.40234h-183.0964v94.96404Z"/></mask></g></g><path d="M-57.0942,70.0301C5.96875,56.0638,43.9051,20.2428,54.9903,4.07813h-13.1566C15.263,31.5384,-18.6785,51.012,-57.0942,54.512v15.5181Z" fill="#4d191c"/><path d="M-59.3721,38.0673C-31.625,36.7179,-9.60782,16.7018,1.47747,0.53711h-9.19279C-26.4383,23.4769,-43.0528,25.7119,-59.3721,28.1155v9.9518Z" fill="#4d191c"/><path d="M-56.8428,45.6993C4.59713,29.127,5.72763,20.7917,16.8129,4.62695C-9.75779,32.0873,-37.0648,38.3479,-56.8428,43.7174v1.9819Z" fill="#4d191c"/><path d="M-62.6616,88.3317C44.4817,54.8127,81.4713,1.29531,70.3809,-1.36133C24.0449,54.1795,-27.1172,75.3208,-61.6074,86.181l-1.0542,2.1507Z" fill="#4d191c"/><path d="M-59.3721,78.1271C2.06783,61.5547,3.19833,53.2194,14.2836,37.0547c-26.5707,27.4603-53.8777,33.721-73.6557,39.0904v1.982Z" fill="#4d191c"/></g><g><path d="M-120.266,43.4977c96.8102,19.2931,172.8424-28.7085,198.7573-55.121L-100.662,-49.4209l-19.604,92.9186Z" fill="#5d1e21"/><g mask="url(#e8AzhHXDIPx60)"><path d="M-120.266,43.4977c96.8102,19.2931,172.8424-28.7085,198.7573-55.121L-100.662,-49.4209l-19.604,92.9186Z" fill="none" stroke="#dfab36" stroke-width="6.747" stroke-linecap="round" stroke-linejoin="round" stroke-miterlimit="1" stroke-dasharray="0.34,7.59"/><mask id="e8AzhHXDIPx60" mask-type="luminance" x="-150%" y="-150%" height="400%" width="400%"><rect width="208.149" height="140.21" rx="0" ry="0" transform="translate(-125.013 -54.1605)" fill="#fff"/><path d="M-120.266,43.4977c96.8102,19.2931,172.8424-28.7085,198.7573-55.121L-100.662,-49.4209l-19.604,92.9186Z"/></mask></g></g><path d="M-73.4058,29.337C-8.81805,28.69,35.6958,1.47196,49.8793,-12.0562l-12.8733-2.716C5.33889,6.61154,-31.8915,18.6589,-70.2023,14.1532L-73.4058,29.337Z" fill="#4d191c"/><path d="M-68.1345,5.58027C-4.59693,2.04825,-1.77007,-5.87419,12.4134,-19.4023C-19.2537,1.98138,-47.265,2.47006,-67.7254,3.64103l-.4091,1.93924Z" fill="#4d191c"/><path d="M-82.629,46.094C29.1259,35.4152,76.3666,-9.31352,66.0635,-14.2024C9.26007,30.5768,-45.1643,40.701,-81.1536,44.2074L-82.629,46.094Z" fill="#4d191c"/><path d="M-77.3045,36.7873c63.5376-3.532,66.3645-11.4545,80.54798-24.9826C-28.4237,33.1884,-56.4349,33.6771,-76.8953,34.8481l-.4092,1.9392Z" fill="#4d191c"/></g></g><clipPath id="e8AzhHXDIPx104" transform="matrix(5 0 0 5 -777.09355 -99.287843)"><rect width="390" height="844" rx="0" ry="0" fill="#fff"/></clipPath></g></svg>
