<svg xmlns="http://www.w3.org/2000/svg" xmlns:xlink="http://www.w3.org/1999/xlink" id="euVUeocE7gN1" viewBox="0 0 390 844" shape-rendering="geometricPrecision" text-rendering="geometricPrecision" project-id="d3fb48f1d6b946dbbf275c2f37732ef7" export-id="7ba6b3eb39ed4b9ca662093176f6b4aa" cached="false"><g><circle id="euVUeocE7gN3" r="116" transform="translate(195 491)" fill="#5d1e21"/><g><g clip-path="url(#euVUeocE7gN8)"><g><path d="M245.145,492.61v3.767h-8.347c1.773,1.97,2.659,4.506,2.659,7.608c0,3.447-1.281,6.304-3.842,8.569-2.511,2.216-6.229,3.324-11.153,3.324-3.398,0-6.279-.567-8.643-1.699v2.511c0,1.527.764,2.437,2.29,2.733l13.887,2.586c2.314.443,4.407,1.034,6.278,1.772c1.872.69,3.374,1.699,4.506,3.029c1.133,1.28,1.699,3.053,1.699,5.318c0,2.413-.787,4.629-2.363,6.647-1.576,2.069-3.915,3.719-7.017,4.95-3.053,1.28-6.87,1.921-11.45,1.921-3.939,0-7.066-.419-9.38-1.256-2.315-.788-3.965-1.823-4.95-3.103-.935-1.28-1.403-2.634-1.403-4.062c0-1.773.592-3.571,1.773-5.393c1.231-1.772,2.733-3.201,4.505-4.284-1.526-.591-2.634-1.354-3.323-2.289-.689-.936-1.034-1.946-1.034-3.03c0-.984.246-1.895.738-2.732.542-.886,1.182-1.773,1.921-2.659l2.438-3.103c-3.595-2.068-5.393-5.318-5.393-9.75c0-3.545,1.256-6.426,3.768-8.642c2.56-2.216,6.303-3.323,11.227-3.323c2.511,0,4.703.294,6.574.885c1.921.591,3.496,1.429,4.727,2.512c1.576-.246,3.054-.64,4.433-1.182c1.427-.591,2.708-1.379,3.84-2.364l1.035.739Zm-29.399,35.381c-.689.985-1.256,2.093-1.699,3.324-.443,1.281-.665,2.462-.665,3.545c0,2.906.886,5.097,2.659,6.575c1.822,1.477,4.678,2.215,8.568,2.215c4.088,0,7.166-.664,9.234-1.994c2.068-1.329,3.102-3.2,3.102-5.613c0-1.379-.517-2.487-1.551-3.324-.985-.837-2.684-1.478-5.097-1.921l-13.369-2.511c-.394-.098-.788-.197-1.182-.296Zm-57.473-25.778h8.274v1.476h-8.347v26.592c0,1.724.369,3.029,1.108,3.915.787.887,1.773,1.329,2.955,1.329c1.034,0,1.944-.246,2.732-.738.788-.542,1.576-1.256,2.364-2.142l.739.739c-.985,1.674-2.339,3.003-4.063,3.988-1.723.985-3.816,1.478-6.278,1.478-3.152,0-5.614-.788-7.387-2.364-1.723-1.575-2.585-4.088-2.585-7.535v-25.262h-5.097v-.738l1.773-.296c1.526-.344,2.832-.836,3.915-1.476c1.133-.64,2.24-1.503,3.323-2.586l6.058-6.722h.738l-.222,10.342Zm-29.807-19.701c2.61,0,5.072.344,7.387,1.034c2.363.689,4.407,1.625,6.13,2.807l-.443,8.864h-.738l-3.029-5.54c-.837-1.724-1.674-2.93-2.511-3.619-.837-.739-1.798-1.257-2.881-1.552-.64-.197-1.231-.32-1.773-.369-.541-.099-1.231-.148-2.068-.148-2.511,0-4.629.739-6.352,2.216-1.724,1.428-2.585,3.373-2.585,5.835c0,2.511.664,4.531,1.994,6.058c1.329,1.477,3.274,2.806,5.835,3.988l3.398,1.477c4.727,2.069,8.125,4.284,10.193,6.648c2.069,2.314,3.102,5.318,3.102,9.012c0,4.333-1.649,7.879-4.948,10.636-3.25,2.709-7.879,4.063-13.887,4.063-2.708,0-5.467-.345-8.273-1.034-2.807-.64-5.146-1.502-7.017-2.585l.369-10.046h.738l2.29,4.801c.69,1.378,1.428,2.61,2.216,3.693.788,1.034,1.872,1.847,3.25,2.437.985.493,1.922.838,2.808,1.035.935.147,1.969.221,3.101.221c3.004,0,5.369-.812,7.092-2.437c1.773-1.625,2.658-3.718,2.658-6.278c0-2.413-.59-4.285-1.772-5.615-1.182-1.378-3.078-2.708-5.688-3.988l-3.028-1.33c-4.235-1.871-7.559-4.013-9.972-6.426-2.363-2.462-3.545-5.712-3.545-9.75c0-2.905.738-5.417,2.215-7.534c1.527-2.118,3.621-3.742,6.28-4.875c2.708-1.133,5.859-1.699,9.454-1.699Zm135.691,9.146c3.201,0,5.933.666,8.198,1.995c2.266,1.281,3.99,3.053,5.171,5.318c1.231,2.216,1.847,4.752,1.847,7.608c0,.542-.025,1.108-.074,1.699-.049.542-.147,1.035-.295,1.478h-22.012c.049,5.318.985,9.159,2.807,11.522c1.871,2.315,4.629,3.472,8.272,3.472c2.462,0,4.457-.394,5.984-1.182c1.526-.788,2.954-1.945,4.284-3.471l.739.665c-1.526,2.708-3.57,4.825-6.131,6.351-2.511,1.527-5.54,2.29-9.086,2.29-3.496,0-6.598-.738-9.306-2.215-2.709-1.527-4.826-3.694-6.353-6.5-1.526-2.807-2.29-6.156-2.29-10.046c0-4.038.887-7.46,2.659-10.267c1.773-2.856,4.039-5.024,6.796-6.501c2.807-1.477,5.737-2.216,8.79-2.216Zm-77.539-1.335c4.383,0,7.756,1.084,10.119,3.25c2.413,2.118,3.62,5.589,3.62,10.415v16.324c0,2.216,1.034,3.325,3.102,3.325h1.625l.665.591c-.936,1.181-1.97,2.092-3.103,2.732-1.083.64-2.634.961-4.653.961-2.166,0-3.89-.493-5.17-1.478-1.231-1.034-2.044-2.388-2.438-4.062-1.477,1.575-3.004,2.93-4.579,4.062-1.527,1.084-3.522,1.625-5.984,1.625-2.856,0-5.268-.812-7.238-2.437-1.921-1.625-2.881-3.965-2.881-7.018c0-2.314,1.182-4.432,3.546-6.352c2.364-1.97,6.082-3.447,11.153-4.432.788-.148,1.675-.296,2.66-.443.984-.197,2.019-.394,3.102-.591v-5.835c0-3.349-.419-5.688-1.256-7.018-.788-1.378-2.044-2.068-3.767-2.068-1.182,0-2.118.395-2.807,1.183-.689.738-1.133,2.043-1.33,3.914l-.148.812c-.098,2.118-.615,3.67-1.55,4.655-.936.984-2.093,1.476-3.472,1.476-1.28,0-2.34-.394-3.177-1.182-.837-.787-1.255-1.846-1.255-3.175c0-2.019.689-3.718,2.068-5.097c1.428-1.379,3.3-2.413,5.614-3.103c2.314-.689,4.826-1.034,7.534-1.034Zm2.069,18.245c-.493.099-1.06.197-1.7.295-2.265.591-4.087,1.601-5.466,3.029-1.329,1.378-1.994,3.25-1.994,5.614c0,2.019.468,3.545,1.404,4.579.935.985,2.068,1.477,3.397,1.477.985,0,1.896-.221,2.734-.665.886-.492,1.92-1.231,3.102-2.215v-12.41c-.492.099-.985.198-1.477.296Zm35.849-15.072c-1.822,0-3.201.813-4.137,2.438-.935,1.575-1.403,4.26-1.403,8.051c0,3.792.419,6.475,1.256,8.051.886,1.576,2.265,2.364,4.136,2.364c1.969,0,3.397-.812,4.284-2.437.935-1.625,1.404-4.334,1.404-8.125c0-3.792-.469-6.451-1.404-7.978-.886-1.575-2.265-2.364-4.136-2.364Zm39.4-.36c-1.429,0-2.66.443-3.694,1.33-.985.837-1.773,2.363-2.364,4.579-.542,2.167-.837,5.245-.886,9.233h12.631c.492-5.367.296-9.233-.591-11.596-.886-2.364-2.585-3.546-5.096-3.546ZM146.053,428.965c6.007,0,10.342,1.107,13.001,3.323c2.659,2.167,3.988,4.925,3.988,8.274c0,2.511-.985,4.801-2.954,6.869-1.921,2.019-5.245,3.447-9.973,4.284c5.417.591,9.381,2.019,11.893,4.284c2.511,2.216,3.767,4.924,3.767,8.125c0,1.576-.344,3.177-1.034,4.802-.689,1.575-1.872,3.028-3.546,4.357-1.625,1.33-3.865,2.413-6.721,3.25-2.856.788-6.476,1.183-10.859,1.183h-18.761v-.739l1.33-.517c.984-.394,1.649-.887,1.994-1.478.394-.59.591-1.378.591-2.363v-38.557c0-1.034-.197-1.847-.591-2.438-.345-.591-1.01-1.059-1.994-1.403l-1.33-.518v-.738h21.199Zm40.196,11.006c4.383,0,7.756,1.083,10.119,3.25c2.413,2.117,3.619,5.589,3.619,10.415v16.324c0,2.216,1.035,3.323,3.103,3.323h1.625l.665.591c-.936,1.182-1.97,2.093-3.103,2.733-1.083.641-2.634.96-4.653.96-2.167,0-3.891-.491-5.171-1.476-1.231-1.034-2.043-2.389-2.437-4.064-1.478,1.576-3.004,2.931-4.579,4.064-1.527,1.083-3.522,1.625-5.984,1.625-2.856,0-5.269-.813-7.238-2.438-1.921-1.625-2.881-3.964-2.881-7.017c0-2.315,1.181-4.432,3.545-6.353c2.364-1.97,6.082-3.447,11.154-4.431.788-.148,1.675-.296,2.659-.444.985-.197,2.019-.394,3.102-.591v-5.835c0-3.348-.418-5.688-1.255-7.017-.788-1.379-2.044-2.069-3.768-2.069-1.181,0-2.117.394-2.806,1.182-.69.739-1.133,2.044-1.33,3.915l-.148.813c-.098,2.117-.615,3.668-1.55,4.653-.936.985-2.093,1.477-3.472,1.478-1.28,0-2.34-.394-3.177-1.182s-1.256-1.847-1.256-3.177c0-2.019.69-3.718,2.069-5.097c1.428-1.378,3.299-2.412,5.614-3.101c2.314-.689,4.826-1.034,7.534-1.034Zm38.207,0c2.856,0,5.27.467,7.239,1.403c1.97.936,3.471,2.167,4.505,3.693c1.034,1.478,1.552,3.029,1.552,4.654c0,1.378-.419,2.462-1.256,3.25-.837.738-1.92,1.108-3.25,1.108-1.428,0-2.585-.518-3.472-1.552-.886-1.034-1.403-2.388-1.55-4.062-.05-1.083-.026-1.995.073-2.734.098-.787.098-1.575,0-2.363-.197-.837-.517-1.379-.96-1.625-.394-.295-.961-.443-1.699-.443-3.004,0-5.343,1.305-7.017,3.915-1.625,2.61-2.437,6.771-2.437,12.483c0,4.974.91,8.79,2.732,11.449c1.871,2.61,4.728,3.914,8.568,3.915c2.315,0,4.187-.418,5.615-1.255s2.806-2.094,4.135-3.768l.74.591c-1.231,2.905-3.127,5.146-5.688,6.722-2.561,1.575-5.59,2.364-9.086,2.364-3.348,0-6.401-.715-9.159-2.143-2.708-1.477-4.875-3.595-6.5-6.352-1.576-2.807-2.363-6.229-2.363-10.267c0-3.988.861-7.386,2.585-10.193c1.772-2.856,4.112-5.024,7.017-6.501c2.955-1.527,6.18-2.289,9.676-2.289Zm29.543-13.37l-.222,10.341v36.046c0,1.97.813,3.201,2.438,3.694l1.034.295v.739h-17.653v-.739l1.107-.37c1.674-.541,2.512-1.748,2.512-3.619v-39.517c0-.985-.197-1.725-.591-2.217s-1.084-.886-2.068-1.182l-.96-.221v-.739l13.517-3.175.886.664Zm23.12,16.324l-2.216.591c-1.083.344-1.969.763-2.659,1.255-.64.444-1.428,1.084-2.364,1.921l-8.273,7.756l13.222,18.392c.788,1.083,1.527,1.921,2.216,2.512.689.59,1.576,1.083,2.659,1.477l.296.148v.739h-13.001l-13.147-18.467l13.665-12.631c.64-.591,1.009-1.206,1.107-1.847.148-.689-.27-1.182-1.255-1.477l-1.256-.369v-.738h11.006v.738ZM139.701,476.238h3.693c3.693,0,6.426-.985,8.199-2.955c1.822-1.969,2.733-5.047,2.733-9.232c0-3.94-.862-6.747-2.586-8.421-1.723-1.674-4.555-2.512-8.494-2.512h-3.545v23.12Zm48.616-18.023c-.492.098-1.059.197-1.699.296-2.265.591-4.087,1.6-5.466,3.028-1.329,1.379-1.994,3.25-1.994,5.613c0,2.019.468,3.546,1.404,4.58.935.985,2.068,1.478,3.397,1.478.985,0,1.896-.222,2.733-.665.887-.492,1.92-1.231,3.102-2.216v-12.409c-.492.098-.984.196-1.477.295Zm-48.616-6.573h3.176c3.299,0,5.663-.764,7.091-2.29c1.477-1.527,2.216-4.186,2.216-7.978c0-3.939-.665-6.747-1.995-8.421-1.329-1.674-3.496-2.512-6.5-2.512h-3.988v21.201Z" fill="#c0a272"/></g><clipPath id="euVUeocE7gN8"><rect width="170" height="121" rx="0" ry="0" transform="translate(110 425)" fill="#fff"/></clipPath></g></g></g><script><![CDATA[
!function(t,e){"object"==typeof exports&&"undefined"!=typeof module?module.exports=e():"function"==typeof __SVGATOR_DEFINE__&&__SVGATOR_DEFINE__.amd?__SVGATOR_DEFINE__(e):((t="undefined"!=typeof globalThis?globalThis:t||self).__SVGATOR_PLAYER__=t.__SVGATOR_PLAYER__||{},t.__SVGATOR_PLAYER__["5c7f360c"]=e())}(this,function(){"use strict";const t=n(Math.pow(10,-6)),e=n(Math.pow(10,-2));function n(t,e=6){return function(t,e,n){if(Number.isInteger(t))return t;const r=Math.pow(10,e);return Math[n]((+t+Number.EPSILON)*r)/r}(t,e,"round")}function r(e,n,r=t){return Math.abs(e-n)<r}const i=Math.PI/180;function s(t){return t*i}function o(t){return t/i}function u(t){return"number"!=typeof t&&(t=Number(t)),isNaN(t)||!isFinite(t)?0:t}let l={iD:!1};function a(t){return`${t}`.replace(/['"]/g,"")}function c(t,e="px"){return t.endsWith(e)?t:`${t}${e}`}function f(t=""){return l.iD?t:void 0}function h(t){const e=["^","\\s*","(matrix\\()","(?<a>-?[0-9]*\\.?[0-9]+)","\\s*",",?","\\s*","(?<b>-?[0-9]*\\.?[0-9]+)","\\s*",",?","\\s*","(?<c>-?[0-9]*\\.?[0-9]+)","\\s*",",?","\\s*","(?<d>-?[0-9]*\\.?[0-9]+)","\\s*",",?","\\s*","(?<e>-?[0-9]*\\.?[0-9]+)","\\s*",",?","\\s*","(?<f>-?[0-9]*\\.?[0-9]+)","\\)"].join(""),n=t.match(new RegExp(e,"i"));if(n)return[u(n.groups.a),u(n.groups.b),u(n.groups.c),u(n.groups.d),u(n.groups.e),u(n.groups.f)]}function d(t,e="inline"){return t&&t!==e?(t=a(t))===e?f(e):t:f(e)}function g(t,e="1px"){if(!t||t===e)return f(e);if(t.endsWith("px")||t.endsWith("%"))return t;const r=c(t=`${n(u(t),2)}`);return r===e?f(e):r}function p(t,e="none"){if(!t||t===e)return f(e);if((t=a(t))===e)return f(e);const n=t.match(/url\(#.+?\)/);return n?n[0]:function(t){const e=["^","\\s*","url\\(","#","(?<maskId>[a-zA-Z0-9\\-_]+)","\\)"].join(""),n=t.match(new RegExp(e,"i"));if(n)return`url(#${n.groups.maskId})`}(t)}function y(t,e="rgb(0, 0, 0)"){if(!t||t===e)return f(e);if((t=a(t))===e)return f(e);if(t.startsWith("rgb"))return t;const n=function(t){if("string"!=typeof t||"#"!==t[0])return t;const e=t.slice(1),n=e.length;if(3!==n&&6!==n)return t;for(let r=0;r<n;r++){const n=e.charCodeAt(r);if(!(n>=48&&n<=57||n>=65&&n<=70||n>=97&&n<=102))return t}if(3===n)return`rgb(${parseInt(e[0]+e[0],16)}, ${parseInt(e[1]+e[1],16)}, ${parseInt(e[2]+e[2],16)})`;return`rgb(${parseInt(e.slice(0,2),16)}, ${parseInt(e.slice(2,4),16)}, ${parseInt(e.slice(4,6),16)})`}(t);return n===e?f(e):n}function m(t,e="1"){return t&&t!==e?(t=`${n(u(t),3)}`)===e?f(e):t:f(e)}let v={};const b={fill:"none",stroke:"none",opacity:"0.01",transform:"matrix(0.001 0 0 0.001 -10000 -10000)"};function w({element:t,tagType:e="path",property:n="d",attributeValue:r}){return v[r]||(v[r]=function({element:t,tagType:e="path",property:n="d",attributeValue:r}){const i=t.ownerSVGElement,s=document.createElementNS(i.namespaceURI,e);s.setAttributeNS(null,n,r);for(const t in b)s.setAttributeNS(null,t,b[t]);i.appendChild(s);const o=getComputedStyle(s)[n];return s.remove(),o}({element:t,tagType:e,property:n,attributeValue:r})),v[r]}const x=()=>{v={}};"object"==typeof window&&(window.removeEventListener("resize",x),window.addEventListener("resize",x));const A={include:(t,e)=>["path"].includes(e),formatter:t=>function(t,e=""){return t&&t!==e?(t=a(t))===e?f(e):t.startsWith("path(")?t:`path('${t}')`:f(e)}(t)},_={include:(t,e)=>["rect","mask"].includes(e),formatter:(t,e,n)=>g(t,function(t,e){var n;return(null===(n={mask:{x:"-150%",y:"-150%",width:"400%",height:"400%"}}[e])||void 0===n?void 0:n[t])||(["x","y"].includes(t)?"0px":"100%")}(e,n))},S=Object.freeze({d:A,display:t=>d(t),height:_,fill:t=>y(t),"fill-opacity":t=>m(t),filter:t=>d(t,"none"),mask:t=>p(t),opacity:t=>m(t),stroke:t=>y(t,"none"),"stroke-opacity":t=>m(t),"stroke-width":t=>g(t),transform:t=>function(t,e="none"){if(!t||t===e)return f(e);const n=h(t);return n?`matrix(${n.join(", ")})`:t}(t),"transform-origin":t=>function(t,e="0px 0px"){if(!t||t===e)return f(e);const n=["^","\\s*","(?<x>[0-9]+)","(px)?","\\s*",",","\\s*","(?<y>[0-9]+)","(px)?"].join(""),r=t.match(new RegExp(n,"i"));if(!r)return t;let i=`${u(r.groups.x)}`;i=c(i);let s=`${u(r.groups.y)}`;s=c(s);const o=`${i} ${s}`;return o===e?f(e):o}(t),visibility:t=>d(t,"visible"),width:_,x:_,y:_}),k=Object.keys(S),E=e;function I(t,e){return r((e-t)/(e||1)*100,0,E)}function M(t,e,n,r,i=window){var s,o;const u=t.getAttribute(e),l="transform"===e?"none":"",a=(i.safari||function(t){var e,n;const r=null==t?void 0:t.userAgent;return(null==t||null===(e=t.vendor)||void 0===e||null===(n=e.indexOf)||void 0===n?void 0:n.call(e,"Apple"))>-1&&r&&-1===r.indexOf("CriOS")&&-1===r.indexOf("FxiOS")}(null==i?void 0:i.navigator)||i.webkit)&&!i.chrome&&(null===(s=r.getPropertyValue)||void 0===s?void 0:s.call(r,e))===l||"mask"===n?u:null===(o=r.getPropertyValue)||void 0===o?void 0:o.call(r,e);if(u&&a){if(u===a)return u;switch(e){case"transform":return function(t,e){const n=h(t),r=h(e);if((null==n?void 0:n.length)===(null==r?void 0:r.length)){for(let t=0,e=n.length;t<e;t++)if(n[t]!==r[t]&&!I(r[t],n[t]))return;return t}}(u,a);case"d":return function(t,e,n){return w({element:t,attributeValue:e})===n?e:void 0}(t,u,a);default:return a}}}function N(t,e,n,r){var i,s,o;const u="transform"===e||["mask","path"].includes(n)&&["x","y","width","height","d"].includes(e);return r&&u?M(t,e,n,r):(null===(i=r.getPropertyValue)||void 0===i?void 0:i.call(r,e))??(null===(s=t.attrs)||void 0===s||null===(s=s.style)||void 0===s?void 0:s[e])??(null===(o=t.attrs)||void 0===o?void 0:o[e])}function O(t,e,n=!1){l.iD=n;const r="undefined"!=typeof window&&getComputedStyle(t),i={};for(let l=0,a=k.length;l<a;l++){var s,o,u;const a=k[l],c=t.type||t.nodeName;if(!1===(null===(s=(o=S[a]).include)||void 0===s?void 0:s.call(o,a,c)))continue;const f=S[a].formatter||S[a];if(null!=e&&null!==(u=e[t.id])&&void 0!==u&&u[a])continue;const h=N(t,a,c,r);if(null==h&&!n)continue;const d=f.call(this,h,a,c);d&&(i[a]=d)}return i}function B(t){var e,n;if(null==t||null===(e=t.wD)||void 0===e||!e.length)return;this.h=t.wD.shift();const r=null===(n=t.rootId)||void 0===n?void 0:n.slice(0,-1);this.wIs=t.wD.map(t=>`${r}${t}`)}function j(t){const e=new B(t),n=t.svg,r=e.wIs,i=t.originalAnimations[0].elements,s=e.h;function o(t,e,s){var u;if(e[t])return;const l=n.querySelector("#"+t),a=null==l||null===(u=l.parentElement)||void 0===u?void 0:u.id;if(l&&a){if(r.includes(a))return e[a]||o(a,e,s),e[a].children??=[],e[t]=O(l,i),void e[a].children.push(e[t]);e[t]=O(l,i),s.push(e[t])}}async function u(){const t=function(){let t=[],e={};for(let n=0,i=r.length;n<i;n++)o(r[n],e,t);return t}();return await async function(t){var e;const n=JSON.stringify(t),r=(new TextEncoder).encode(n),i=await(null===(e=window.crypto)||void 0===e||null===(e=e.subtle)||void 0===e?void 0:e.digest("SHA-256",r));return i&&Array.from(new Uint8Array(i)).map(t=>t.toString(16).padStart(2,"0")).join("")||s}(t)}this.vH=async function(){await u()!==s&&requestAnimationFrame(()=>t.stop())}}function T(t){this.cF=function(i,s){return s()}}function F(t){return t}function C(t,e,n){const r=1-n;return 3*n*r*(t*r+e*n)+n*n*n}function V(t=0,e=0,n=1,i=1){return t<0||t>1||n<0||n>1?null:r(t,e)&&r(n,i)?F:s=>{if(s<=0)return t>0?s*e/t:0===e&&n>0?s*i/n:0;if(s>=1)return n<1?1+(s-1)*(i-1)/(n-1):1===n&&t<1?1+(s-1)*(e-1)/(t-1):1;let o,u=0,l=1;for(;u<l;){o=(u+l)/2;const e=C(t,n,o);if(r(s,e))break;e<s?u=o:l=o}return C(e,i,o)}}function R(){return 1}function $(t){return 1===t?1:0}function D(t=1,e=0){if(1===t){if(0===e)return $;if(1===e)return R}const n=1/t;return t=>t>=1?1:(t+=e*n)-t%n}Number.isInteger||(Number.isInteger=function(t){return"number"==typeof t&&isFinite(t)&&Math.floor(t)===t}),Number.EPSILON||(Number.EPSILON=2220446049250313e-31);const P=Math.sin,q=Math.cos,L=Math.acos,z=Math.asin,G=Math.tan,W=Math.atan2,Y=Math.sqrt;function U(t,e){return{a:t[0]*e[0]+t[2]*e[1],b:t[1]*e[0]+t[3]*e[1],c:t[0]*e[2]+t[2]*e[3],d:t[1]*e[2]+t[3]*e[3],tx:t[0]*e[4]+t[2]*e[5]+t[4],ty:t[1]*e[4]+t[3]*e[5]+t[5]}}function H(t,e,n){return t>=.5?n:e}function J(t,e,n){return 0===t||e===n?e:t*(n-e)+e}function X(t,e,n){const r=J(t,e,n);return r<=0?0:r}function Q(t,e,n){const r=J(t,e,n);return r<=0?0:r>=1?1:r}function Z(t,e,n){return 0===t?e:1===t?n:{x:J(t,e.x,n.x),y:J(t,e.y,n.y)}}function K(t,e,n){return 0===t?e:1===t?n:{x:X(t,e.x,n.x),y:X(t,e.y,n.y)}}function tt(t,e,n){const r=function(t,e,n){return Math.round(J(t,e,n))}(t,e,n);return r<=0?0:r>=255?255:r}function et(t,e,n){return 0===t?e:1===t?n:{r:tt(t,e.r,n.r),g:tt(t,e.g,n.g),b:tt(t,e.b,n.b),a:J(t,null==e.a?1:e.a,null==n.a?1:n.a)}}function nt(t,e,n){let r=e.length;if(r!==n.length)return H(t,e,n);let i=new Array(r);for(let s=0;s<r;s++)i[s]=J(t,e[s],n[s]);return i}function rt(t,e){const n=[];for(let r=0;r<t;r++)n.push(e);return n}function it(t,e){if(--e<=0)return t;const n=(t=Object.assign([],t)).length;do{for(let e=0;e<n;e++)t.push(t[e])}while(--e>0);return t}class st{constructor(t){this.list=t,this.length=t.length}setAttribute(t,e){const n=this.list;for(let r=0;r<this.length;r++)n[r].setAttribute(t,e)}removeAttribute(t){const e=this.list;for(let n=0;n<this.length;n++)e[n].removeAttribute(t)}style(t,e){const n=this.list;for(let r=0;r<this.length;r++)n[r].style[t]=e}}const ot=/-./g,ut=(t,e)=>e.toUpperCase();let lt;function at(t){return"function"==typeof t?t:H}function ct(t){return t?"function"==typeof t?t:Array.isArray(t)?function(t,e=F){if(!Array.isArray(t))return e;switch(t.length){case 1:return D(t[0])||e;case 2:return D(t[0],t[1])||e;case 4:return V(t[0],t[1],t[2],t[3])||e}return e}(t,null):function(t,e,n=F){switch(t){case"linear":return F;case"steps":return D(e.steps||1,e.jump||0)||n;case"bezier":case"cubic-bezier":return V(e.x1||0,e.y1||0,e.x2||0,e.y2||0)||n}return n}(t.type,t.value,null):null}function ft(t,e,n,r=!1){const i=e.length-1;if(t<=e[0].t)return r?[0,0,e[0].v]:e[0].v;if(t>=e[i].t)return r?[i,1,e[i].v]:e[i].v;let s,o=e[0],u=null;for(s=1;s<=i;s++){if(!(t>e[s].t)){u=e[s];break}o=e[s]}return null==u?r?[i,1,e[i].v]:e[i].v:o.t===u.t?r?[s,1,u.v]:u.v:(t=(t-o.t)/(u.t-o.t),o.e&&(t=o.e(t)),r?[s,t,n(t,o.v,u.v)]:n(t,o.v,u.v))}function ht(t,e,n=null){return t&&t.length?"function"!=typeof e?null:("function"!=typeof n&&(n=null),r=>{let i=ft(r,t,e);return null!=i&&n&&(i=n(i)),i}):null}function dt(t,e){return t.t-e.t}function gt(t,e,n,r,i){const s="@"===n[0],o="#"===n[0];let u=lt[n],l=H;var a;switch(s?(a=n.substr(1),n=a.replace(ot,ut)):o&&(n=n.substr(1)),typeof u){case"function":if(l=u(r,i,ft,ct,n,s,e,t),o)return l;break;case"string":l=ht(r,at(u));break;case"object":if(l=ht(r,at(u.i),u.f),l&&"function"==typeof u.u)return u.u(e,l,n,s,t)}return l?function(t,e,n,r=!1){if(r)return t instanceof st?r=>t.style(e,n(r)):r=>t.style[e]=n(r);if(Array.isArray(e)){const r=e.length;return i=>{const s=n(i);if(null==s)for(let n=0;n<r;n++)t[n].removeAttribute(e);else for(let n=0;n<r;n++)t[n].setAttribute(e,s)}}return r=>{const i=n(r);null==i?t.removeAttribute(e):t.setAttribute(e,i)}}(e,n,l,s):null}function pt(t,e,n,r){if(!r||"object"!=typeof r)return null;let i=null,s=null;return Array.isArray(r)?s=function(t){if(!t||!t.length)return null;for(let e=0;e<t.length;e++)t[e].e&&(t[e].e=ct(t[e].e));return t.sort(dt)}(r):(s=r.keys,i=r.data||null),s?gt(t,e,n,s,i):null}function yt(t,e,n){if(!n)return null;const r=[];for(const i in n)if(n.hasOwnProperty(i)){const s=pt(t,e,i,n[i]);s&&r.push(s)}return r.length?r:null}function mt(t,e){if(!e.settings.duration||e.settings.duration<0)return null;const n=function(t,e){if(!e)return null;let n=[];if(Array.isArray(e)){const r=e.length;for(let i=0;i<r;i++){const r=e[i];if(2!==r.length)continue;let s=null;if("string"==typeof r[0])s=t.getElementById(r[0]);else if(Array.isArray(r[0])){s=[];for(let e=0;e<r[0].length;e++)if("string"==typeof r[0][e]){const n=t.getElementById(r[0][e]);n&&s.push(n)}s=s.length?1===s.length?s[0]:new st(s):null}if(!s)continue;const o=yt(t,s,r[1]);o&&(n=n.concat(o))}}else for(const r in e){if(!e.hasOwnProperty(r))continue;const i=t.getElementById(r);if(!i)continue;const s=yt(t,i,e[r]);s&&(n=n.concat(s))}return n.length?n:null}(t,e.elements);return n?function(t,e){const n=e.duration,r=t.length;let i=null;return(s,o)=>{const u=e.iterations||1/0,l=(e.alternate&&u%2==0)^e.direction>0?n:0;let a=s%n,c=1+(s-a)/n;o*=e.direction,e.alternate&&c%2==0&&(o=-o);let f=!1;if(c>u)a=l,f=!0,-1===e.fill&&(a=e.direction>0?0:n);else if(o<0&&(a=n-a),a===i)return!1;i=a;for(let e=0;e<r;e++)t[e](a);return f}}(n,e.settings):null}function vt(t,e=document,n=0){const r=function(t,e){const n=e.querySelectorAll("svg");for(let e=0;e<n.length;e++)if(n[e].id===t.root&&!n[e].svgatorAnimation)return n[e].svgatorAnimation=!0,n[e];return null}(t,e);if(r)return r;if(n>=20)return null;const i=function(t){const e=t=>t.shadowRoot;return document?Array.from(t.querySelectorAll(":not("+["a","area","audio","br","canvas","circle","datalist","embed","g","head","hr","iframe","img","input","link","object","path","polygon","rect","script","source","style","svg","title","track","video"].join()+")")).filter(e).map(e):[]}(e);for(let e=0;e<i.length;e++){const r=vt(t,i[e],n+1);if(r)return r}return null}function bt(t,e=null,n=Number,r="undefined"!=typeof BigInt&&BigInt){const i="0x"+(t.replace(/[^0-9a-fA-F]+/g,"")||27);return e&&r&&n.isSafeInteger&&!n.isSafeInteger(+i)?n(r(i))%e+e:+i}function wt(t,e=27){return!t||t%e?t%e:[0,1].includes(e)?e:wt(t/e,e)}function xt(t,e,n){if(!t||!t.length)return;const r=bt(n),i=wt(r)+5;let s=function(t,e,n){let r="";for(;t&&n&&e<=t.length;)r+=t.substring(0,e),t=t.substring(e+1),e=n;return r+t}(t,wt(r,5),i);return s=s.replace(/\x7c$/g,"==").replace(/\x2f$/g,"="),s=atob(s),s=s.replace(/[\x41-\x5A]/g,""),s=function(t,e,n){const r=+("0x"+t.substring(0,4));t=t.substring(4);const i=bt(e,r)%r+n%27,s=[];for(let e=0;e<t.length;e+=2){if("|"===t[e]){const n=+("0x"+t.substring(e+1,e+1+4))-i;e+=3,s.push(n);continue}const n=+("0x"+t[e]+t[e+1])-i;s.push(n)}return String.fromCharCode(...s)}(s,e,r),s=JSON.parse(s),s}const At=[{key:"alternate",def:!1},{key:"fill",def:1},{key:"iterations",def:0},{key:"direction",def:1},{key:"speed",def:1},{key:"fps",def:100}],_t="5c7f360c";let St=class{_svg;_rootId;constructor(t){this._id=0,this._running=!1,this._rollingBack=!1,this._animations=t.animations,this._settings=t.animationSettings,t.version<"2022-05-02"&&delete this._settings.speed,At.forEach(t=>{this._settings[t.key]=this._settings[t.key]||t.def}),this.duration=t.animationSettings.duration,this.offset=t.animationSettings.offset||0,this.rollbackStartOffset=0,this._rootId=t.root,this._svg=t.svg,this._originalAnimations=t.originalAnimations,this._fTC=new T(this)}get svg(){return this._svg}get rootId(){return this._rootId}get alternate(){return this._settings.alternate}get fill(){return this._settings.fill}get iterations(){return this._settings.iterations}get direction(){return this._settings.direction}get speed(){return this._settings.speed}get fps(){return this._settings.fps}get wD(){return this._settings.w}get originalAnimations(){return this._originalAnimations}get maxFiniteDuration(){return this.iterations>0?this.iterations*this.duration:this.duration}static build(t,e){if(delete t.animationSettings,t.options=xt(t.options,t.root,_t),t.animations.map(e=>{e.settings=xt(e.s,t.root,_t),delete e.s,t.animationSettings||(t.animationSettings=e.settings)}),Object.assign(t,{originalAnimations:t.animations},function(t,e){if(lt=e,!t||!t.root||!Array.isArray(t.animations))return null;const n=t.svg||vt(t);if(!n)return null;const r=t.animations.map(t=>mt(n,t)).filter(t=>!!t);return r.length?{svg:n,animations:r}:null}(t,e)),null==t||!t.svg)return null;const n=t.options||{},r=new this(t);return{el:t.svg,options:n,player:r}}static push(t){return this.build(t)}static init(){const t=window.__SVGATOR_PLAYER__&&window.__SVGATOR_PLAYER__[_t];Array.isArray(t)&&t.splice(0).forEach(t=>this.build(t))}_apply(t,e={}){const n=this._animations,r=n.length;let i=0;for(let s=0;s<r;s++)e[s]?i++:(e[s]=n[s](t,1),e[s]&&i++);return i}_rollback(t){let e=1/0,n=null;this.rollbackStartOffset=t,this._rollingBack=!0,this._running=!0;const r=i=>{if(!this._rollingBack)return;null==n&&(n=i);let s=Math.round(t-(i-n)*this.speed);if(s>this.duration&&e!==1/0){const t=!!this.alternate&&s/this.duration%2>1;let e=s%this.duration;e+=t?this.duration:0,s=e||this.duration}const o=(this.fps?1e3/this.fps:0)*this.speed,u=Math.max(0,s);u<=e-o&&(this.offset=u,e=u,this._apply(u));const l=this.iterations>0&&-1===this.fill&&s>=this.maxFiniteDuration;(s<=0||this.offset<s||l)&&this.stop(),this._id=window.requestAnimationFrame(r)};this._id=window.requestAnimationFrame(r)}_start(t=0){let e,n=-1/0;const r={};this._running=!0;const i=s=>{e??=s;const o=Math.round((s-e)*this.speed+t),u=(this.fps?1e3/this.fps:0)*this.speed;o>=n+u&&!this._rollingBack&&this._fTC.cF(s,()=>{this.offset=o,n=o;if(this._apply(o,r)===this._animations.length)return this.pause(!0),!0})||(this._id=window.requestAnimationFrame(i))};this._id=window.requestAnimationFrame(i)}_pause(){this._id&&window.cancelAnimationFrame(this._id),this._running=!1}play(){if(!this._running)return this._rollingBack?this._rollback(this.offset):this._start(this.offset)}stop(){this._pause(),this.offset=0,this.rollbackStartOffset=0,this._rollingBack=!1,this._apply(0)}reachedToEnd(){return this.iterations>0&&this.offset>=this.iterations*this.duration}restart(t=!1){this.stop(t),this.play(t)}pause(){this._pause()}toggle(){return this._running?this.pause():this.reachedToEnd()?this.restart():this.play()}trigger(t,e){}_adjustOffset(t=!1){const e=this.alternate?2*this.duration:this.duration;if(t){if(!this._rollingBack&&0===this.offset)return void(this.offset=e);this._rollingBack&&(this.offset,this.maxFiniteDuration)}!this._rollingBack||this.rollbackStartOffset<=this.duration?0!==this.iterations&&(this.offset=Math.min(this.offset,this.maxFiniteDuration)):(this.offset=this.rollbackStartOffset-(this.rollbackStartOffset-this.offset)%e,this.rollbackStartOffset=0)}reverse(t=!1){if(!this._running)return this._adjustOffset(t),this._rollingBack=!this._rollingBack,t&&this.play(!1),void this.trigger("reverse",this.offset);this.pause(!1,!1),this._adjustOffset(),this._rollingBack=!this._rollingBack,this.play(!1),this.trigger("reverse",this.offset)}};function kt(t){return n(t)+""}function Et(t,e=" "){return t&&t.length?t.map(kt).join(e):""}function It(t){return kt(t.x)+","+kt(t.y)}function Mt(t){return t?null==t.a||t.a>=1?function(t){if(!t)return"transparent";const e=t=>parseInt(t).toString(16).padStart(2,"0");return function(t){const e=[];let n="#"===t[0]?e.push("#"):0;for(;n<t.length;n+=2){if(t[n]!==t[n+1])return t;e.push(t[n])}return e.join("")}("#"+e(t.r)+e(t.g)+e(t.b)+(null==t.a||t.a>=1?"":e(255*t.a)))}(t):"rgba("+t.r+","+t.g+","+t.b+","+t.a+")":"transparent"}function Nt(t){return t?"url(#"+t+")":"none"}!function(){for(var t=0,e=["ms","moz","webkit","o"],n=0;n<e.length&&!window.requestAnimationFrame;++n)window.requestAnimationFrame=window[e[n]+"RequestAnimationFrame"],window.cancelAnimationFrame=window[e[n]+"CancelAnimationFrame"]||window[e[n]+"CancelRequestAnimationFrame"];window.requestAnimationFrame||(window.requestAnimationFrame=function(e){var n=Date.now(),r=Math.max(0,16-(n-t)),i=window.setTimeout(function(){e(n+r)},r);return t=n+r,i},window.cancelAnimationFrame=window.clearTimeout)}();var Ot={f:null,i:K,u:(t,e)=>n=>{const r=e(n);t.setAttribute("rx",kt(r.x)),t.setAttribute("ry",kt(r.y))}},Bt={f:null,i:function(t,e,n){return 0===t?e:1===t?n:{width:X(t,e.width,n.width),height:X(t,e.height,n.height)}},u:(t,e)=>n=>{const r=e(n);t.setAttribute("width",kt(r.width)),t.setAttribute("height",kt(r.height))}};let jt={},Tt=null;function Ft(t){let e=function(){if(Tt)return Tt;if("object"!=typeof document||!document.createElementNS)return{};let t=document.createElementNS("http://www.w3.org/2000/svg","svg");return t&&t.style?(t.style.position="absolute",t.style.opacity="0.01",t.style.zIndex="-9999",t.style.left="-9999px",t.style.width="1px",t.style.height="1px",Tt={svg:t},Tt):{}}().svg;if(!e)return function(t){return null};let n=document.createElementNS(e.namespaceURI,"path");n.setAttributeNS(null,"d",t),n.setAttributeNS(null,"fill","none"),n.setAttributeNS(null,"stroke","none"),e.appendChild(n);let r=n.getTotalLength();return function(t){let e=n.getPointAtLength(r*t);return{x:e.x,y:e.y}}}function Ct(t,e,n,r,i=1){let s=function(t){return jt[t]?jt[t]:jt[t]=Ft(t)}(function(t,e,n,r){if(!t||!r)return!1;let i=["M",t.x,t.y];if(e&&n&&(i.push("C"),i.push(e.x),i.push(e.y),i.push(n.x),i.push(n.y)),e?!n:n){let t=e||n;i.push("Q"),i.push(t.x),i.push(t.y)}return e||n||i.push("L"),i.push(r.x),i.push(r.y),i.join(" ")}(t,e,n,r));try{return s(i)}catch(t){return null}}function Vt(t,e,n){return t+(e-t)*n}function Rt(t,e,n,r=!1){const i={x:Vt(t.x,e.x,n),y:Vt(t.y,e.y,n)};return r&&(i.a=function(t,e){return Math.atan2(e.y-t.y,e.x-t.x)}(t,e)),i}function $t(t,e,n,r){const i=1-r;return i*i*t+2*i*r*e+r*r*n}function Dt(t,e,n,r){return 2*(1-r)*(e-t)+2*r*(n-e)}function Pt(t,e,n,r,i=!1){let s=Ct(t,e,null,n,r);return s||(s={x:$t(t.x,e.x,n.x,r),y:$t(t.y,e.y,n.y,r)}),i&&(s.a=function(t,e,n,r){return Math.atan2(Dt(t.y,e.y,n.y,r),Dt(t.x,e.x,n.x,r))}(t,e,n,r)),s}function qt(t,e,n,r,i){const s=i*i;return i*s*(r-t+3*(e-n))+3*s*(t+n-2*e)+3*i*(e-t)+t}function Lt(t,e,n,r,i){const s=1-i;return 3*(s*s*(e-t)+2*s*i*(n-e)+i*i*(r-n))}function zt(t,e,n,r,i,s=!1){let o=Ct(t,e,n,r,i);return o||(o={x:qt(t.x,e.x,n.x,r.x,i),y:qt(t.y,e.y,n.y,r.y,i)}),s&&(o.a=function(t,e,n,r,i){return Math.atan2(Lt(t.y,e.y,n.y,r.y,i),Lt(t.x,e.x,n.x,r.x,i))}(t,e,n,r,i)),o}function Gt(t,e,n,r=!1){if(Yt(e)){if(Ut(n))return Pt(e,n.start,n,t,r)}else if(Yt(n)){if(Ht(e))return Pt(e,e.end,n,t,r)}else{if(Ht(e))return Ut(n)?zt(e,e.end,n.start,n,t,r):Pt(e,e.end,n,t,r);if(Ut(n))return Pt(e,n.start,n,t,r)}return Rt(e,n,t,r)}function Wt(t,e,n){const r=Gt(t,e,n,!0);return r.a=o(function(t,e=!1){return e?t+Math.PI:t}(r.a)),r}function Yt(t){return!t.type||"corner"===t.type}function Ut(t){return null!=t.start&&!Yt(t)}function Ht(t){return null!=t.end&&!Yt(t)}const Jt=new class{constructor(t=1,e=0,n=0,r=1,i=0,s=0){this.m=[t,e,n,r,i,s],this.i=null,this.w=null,this.s=null}get determinant(){const t=this.m;return t[0]*t[3]-t[1]*t[2]}get isIdentity(){if(null===this.i){const t=this.m;this.i=1===t[0]&&0===t[1]&&0===t[2]&&1===t[3]&&0===t[4]&&0===t[5]}return this.i}point(t,e){const n=this.m;return{x:n[0]*t+n[2]*e+n[4],y:n[1]*t+n[3]*e+n[5]}}translateSelf(t=0,e=0){if(!t&&!e)return this;const n=this.m;return n[4]+=n[0]*t+n[2]*e,n[5]+=n[1]*t+n[3]*e,this.w=this.s=this.i=null,this}rotateSelf(t=0){if(t%=360){t=s(t);const e=P(t),n=q(t),r=this.m,i=r[0],o=r[1];r[0]=i*n+r[2]*e,r[1]=o*n+r[3]*e,r[2]=r[2]*n-i*e,r[3]=r[3]*n-o*e,this.w=this.s=this.i=null}return this}scaleSelf(t=1,e=1){if(1!==t||1!==e){const n=this.m;n[0]*=t,n[1]*=t,n[2]*=e,n[3]*=e,this.w=this.s=this.i=null}return this}skewSelf(t,e){if(e%=360,(t%=360)||e){const n=this.m,r=n[0],i=n[1],o=n[2],u=n[3];t&&(t=G(s(t)),n[2]+=r*t,n[3]+=i*t),e&&(e=G(s(e)),n[0]+=o*e,n[1]+=u*e),this.w=this.s=this.i=null}return this}resetSelf(t=1,e=0,n=0,r=1,i=0,s=0){const o=this.m;return o[0]=t,o[1]=e,o[2]=n,o[3]=r,o[4]=i,o[5]=s,this.w=this.s=this.i=null,this}recomposeSelf(t=null,e=null,n=null,r=null,i=null){return this.isIdentity||this.resetSelf(),t&&(t.x||t.y)&&this.translateSelf(t.x,t.y),e&&this.rotateSelf(e),n&&(n.x&&this.skewSelf(n.x,0),n.y&&this.skewSelf(0,n.y)),!r||1===r.x&&1===r.y||this.scaleSelf(r.x,r.y),i&&(i.x||i.y)&&this.translateSelf(i.x,i.y),this}decompose(t=0,e=0){const r=this.m,i=r[0]*r[0]+r[1]*r[1],s=[[r[0],r[1]],[r[2],r[3]]];let u=Y(i);if(0===u)return{origin:{x:n(r[4]),y:n(r[5])},translate:{x:n(t),y:n(e)},scale:{x:0,y:0},skew:{x:0,y:0},rotate:0};s[0][0]/=u,s[0][1]/=u;const l=r[0]*r[3]-r[1]*r[2]<0;l&&(u=-u);let a=s[0][0]*s[1][0]+s[0][1]*s[1][1];s[1][0]-=s[0][0]*a,s[1][1]-=s[0][1]*a;let c,f=Y(s[1][0]*s[1][0]+s[1][1]*s[1][1]);return 0===f?{origin:{x:n(r[4]),y:n(r[5])},translate:{x:n(t),y:n(e)},scale:{x:n(u),y:0},skew:{x:0,y:0},rotate:0}:(s[1][0]/=f,s[1][1]/=f,a/=f,s[1][1]<0?(c=o(L(s[1][1])),s[0][1]<0&&(c=360-c)):c=o(z(s[0][1])),l&&(c=-c),a=o(W(a,Y(s[0][0]*s[0][0]+s[0][1]*s[0][1]))),l&&(a=-a),{origin:{x:n(r[4]),y:n(r[5])},translate:{x:n(t),y:n(e)},scale:{x:n(u),y:n(f)},skew:{x:n(a),y:0},rotate:n(c)})}multiply(t){return this.clone().multiplySelf(t)}preMultiply(t){return t.multiply(this)}multiplySelf(t){const{a:e,b:n,c:r,d:i,tx:s,ty:o}=U(this.m,t.m);return this.resetSelf(e,n,r,i,s,o),this}preMultiplySelf(t){const{a:e,b:n,c:r,d:i,tx:s,ty:o}=U(t.m,this.m);return this.resetSelf(e,n,r,i,s,o),this}clone(){const t=this.m;return new this.constructor(t[0],t[1],t[2],t[3],t[4],t[5])}static create(t){return t?Array.isArray(t)?new this(...t):t instanceof this?t.clone():(new this).recomposeSelf(t.origin,t.rotate,t.skew,t.scale,t.translate):new this}toString(t=" ",e=!1){if(null===this.s){let r=this.m.map(t=>n(t));e||1!==r[0]||0!==r[1]||0!==r[2]||1!==r[3]?this.s="matrix("+r.join(t)+")":this.s="translate("+r[4]+t+r[5]+")"}return this.s}};var Xt={f:function(t){return t?t.join(" "):""},i:function(t,e,n){if(0===t)return e;if(1===t)return n;let r=e.length;if(r!==n.length)return H(t,e,n);let i,s=new Array(r);for(let o=0;o<r;o++){if(i=typeof e[o],i!==typeof n[o])return H(t,e,n);if("number"===i)s[o]=J(t,e[o],n[o]);else{if(e[o]!==n[o])return H(t,e,n);s[o]=e[o]}}return s}},Qt={f:Et,i:nt},Zt={f:null,i:nt,u:(t,e)=>n=>{const r=e(n);t.setAttribute("x1",kt(r[0])),t.setAttribute("y1",kt(r[1])),t.setAttribute("x2",kt(r[2])),t.setAttribute("y2",kt(r[3]))}},Kt={f:kt,i:J},te={f:kt,i:Q},ee={f:function(t,e=" "){return t&&t.length>0&&(t=t.map(t=>n(t,4))),Et(t,e)},i:function(t,e,r){let i=e.length,s=r.length;if(i!==s)if(0===i)i=s,e=rt(i,0);else if(0===s)s=i,r=rt(i,0);else{const t=function(t,e){const n=t*e/function(t,e){let n;for(;e;)n=e,e=t%e,t=n;return t||1}(t,e);return n<0?-n:n}(i,s);e=it(e,Math.floor(t/i)),r=it(r,Math.floor(t/s)),i=s=t}let o=[];for(let s=0;s<i;s++)o.push(n(X(t,e[s],r[s])));return o}},ne={f:kt,i:J};function re(t,e,r){return t.map(t=>function(t,e,r){let i=t.v;if(!i||"g"!==i.t||i.s||!i.v||!i.r)return t;const s=r.getElementById(i.r),o=s&&s.querySelectorAll("stop")||[];return i.s=i.v.map((t,e)=>{let r=o[e]&&o[e].getAttribute("offset");return r=n(parseInt(r)/100),{c:t,o:r}}),delete i.v,t}(t,0,r))}const ie={gt:"gradientTransform",c:{x:"cx",y:"cy"},rd:"r",f:{x:"x1",y:"y1"},to:{x:"x2",y:"y2"}};function se(t,e,n,r,i,s,o,u){return re(t,0,u),e=function(t,e,n){let r,i,s;const o=t.length-1,u={};for(let l=0;l<=o;l++)r=t[l],r.e&&(r.e=e(r.e)),r.v&&(i=r.v,"g"===i.t&&i.r&&(s=n.getElementById(i.r),s&&(u[i.r]={e:s,s:s.querySelectorAll("stop")})));return u}(t,r,u),r=>{const i=n(r,t,oe);if(!i)return"none";if("c"===i.t)return Mt(i.v);if("g"===i.t){if(!e[i.r])return Nt(i.r);const t=e[i.r];return function(t,e){let n=t.s;for(let r=n.length;r<e.length;r++){const e=n[n.length-1].cloneNode();e.id=ae(e.id),t.e.appendChild(e),n=t.s=t.e.querySelectorAll("stop")}for(let t=0,r=n.length,i=e.length-1;t<r;t++)n[t].setAttribute("stop-color",Mt(e[Math.min(t,i)].c)),n[t].setAttribute("offset",e[Math.min(t,i)].o)}(t,i.s),Object.keys(ie).forEach(e=>{if(void 0===i[e])return;if("object"==typeof ie[e])return void Object.keys(ie[e]).forEach(n=>{if(void 0===i[e][n])return;const r=i[e][n],s=ie[e][n];t.e.setAttribute(s,r)});const n="gt"===e?(r=i[e],Array.isArray(r)?"matrix("+r.join(" ")+")":""):i[e];var r;const s=ie[e];t.e.setAttribute(s,n)}),Nt(i.r)}return"none"}}function oe(t,e,n){if(0===t)return e;if(1===t)return n;if(e&&n){const r=e.t;if(r===n.t)switch(e.t){case"c":return{t:r,v:et(t,e.v,n.v)};case"g":if(e.r===n.r){const i={t:r,s:ue(t,e.s,n.s),r:e.r};return e.gt&&n.gt&&(i.gt=nt(t,e.gt,n.gt)),e.c?(i.c=Z(t,e.c,n.c),i.rd=X(t,e.rd,n.rd)):e.f&&(i.f=Z(t,e.f,n.f),i.to=Z(t,e.to,n.to)),i}}if("c"===e.t&&"g"===n.t||"c"===n.t&&"g"===e.t){const r="c"===e.t?e:n,i="g"===e.t?{...e}:{...n},s=i.s.map(t=>({c:r.v,o:t.o}));return i.s="c"===e.t?ue(t,s,i.s):ue(t,i.s,s),i}}return H(t,e,n)}function ue(t,e,n){if(e.length===n.length)return e.map((e,r)=>le(t,e,n[r]));const r=Math.max(e.length,n.length),i=[];for(let s=0;s<r;s++){const r=le(t,e[Math.min(s,e.length-1)],n[Math.min(s,n.length-1)]);i.push(r)}return i}function le(t,e,n){return{o:Q(t,e.o,n.o||0),c:et(t,e.c,n.c||{})}}function ae(t){return t.replace(/-fill-([0-9]+)$/,(t,e)=>"-fill-"+(+e+1))}function ce(t,e,n){return 0===t?e:1===t?n:{blur:K(t,e.blur,n.blur),offset:Z(t,e.offset,n.offset),color:et(t,e.color,n.color)}}const fe={blur:K,brightness:X,contrast:X,"drop-shadow":ce,"inner-shadow":ce,grayscale:X,"hue-rotate":J,invert:X,opacity:X,saturate:X,sepia:X};function he(t,e,n){if(0===t)return e;if(1===t)return n;const r=e.length;if(r!==n.length)return H(t,e,n);const i=[];let s;for(let o=0;o<r;o++){if(e[o].type!==n[o].type)return e;if(s=fe[e[o].type],!s)return H(t,e,n);i.push({type:e.type,value:s(t,e[o].value,n[o].value)})}return i}const de={blur:t=>t?e=>{t.setAttribute("stdDeviation",It(e))}:null,brightness:(t,e,n)=>(t=pe(n,e))?e=>{e=kt(e),t.map(t=>t.setAttribute("slope",e))}:null,contrast:(t,e,n)=>(t=pe(n,e))?e=>{const n=kt((1-e)/2);e=kt(e),t.map(t=>{t.setAttribute("slope",e),t.setAttribute("intercept",n)})}:null,"drop-shadow"(t,e,n){const r=n.getElementById(e+"-blur");if(!r)return null;const i=n.getElementById(e+"-offset");if(!i)return null;const s=n.getElementById(e+"-flood");return s?t=>{r.setAttribute("stdDeviation",It(t.blur)),i.setAttribute("dx",kt(t.offset.x)),i.setAttribute("dy",kt(t.offset.y)),s.setAttribute("flood-color",Mt(t.color))}:null},"inner-shadow"(t,e,n){const r=n.getElementById(e+"-blur");if(!r)return null;const i=n.getElementById(e+"-offset");if(!i)return null;const s=n.getElementById(e+"-color-matrix");return s?t=>{r.setAttribute("stdDeviation",It(t.blur)),i.setAttribute("dx",kt(t.offset.x)),i.setAttribute("dy",kt(t.offset.y));const e=[0,0,0,0,t.color.r/255,0,0,0,0,t.color.g/255,0,0,0,0,t.color.b/255,0,0,0,t.color.a,0];s.setAttribute("values",Et(e))}:null},grayscale:t=>t?e=>{t.setAttribute("values",Et(function(t){return[.2126+.7874*(t=1-t),.7152-.7152*t,.0722-.0722*t,0,0,.2126-.2126*t,.7152+.2848*t,.0722-.0722*t,0,0,.2126-.2126*t,.7152-.7152*t,.0722+.9278*t,0,0,0,0,0,1,0]}(e)))}:null,"hue-rotate":t=>t?e=>t.setAttribute("values",kt(e)):null,invert:(t,e,n)=>(t=pe(n,e))?e=>{e=kt(e)+" "+kt(1-e),t.map(t=>t.setAttribute("tableValues",e))}:null,opacity:(t,e,n)=>(t=n.getElementById(e+"-A"))?e=>t.setAttribute("tableValues","0 "+kt(e)):null,saturate:t=>t?e=>t.setAttribute("values",kt(e)):null,sepia:t=>t?e=>t.setAttribute("values",Et(function(t){return[.393+.607*(t=1-t),.769-.769*t,.189-.189*t,0,0,.349-.349*t,.686+.314*t,.168-.168*t,0,0,.272-.272*t,.534-.534*t,.131+.869*t,0,0,0,0,0,1,0]}(e))):null};const ge=["R","G","B"];function pe(t,e){const n=ge.map(n=>t.getElementById(e+"-"+n)||null);return-1!==n.indexOf(null)?null:n}var ye={fill:se,"fill-opacity":te,stroke:se,"stroke-opacity":te,"stroke-width":Kt,"stroke-dashoffset":ne,"stroke-dasharray":ee,opacity:te,transform:function(t,e,n,r){if(!(t=function(t,e){if(!t||"object"!=typeof t)return null;let n=!1;for(const r in t)t.hasOwnProperty(r)&&(t[r]&&t[r].length?(t[r].forEach(t=>{t.e&&(t.e=e(t.e))}),n=!0):delete t[r]);return n?t:null}(t,r)))return null;const i=(r,i,s,o=null)=>t[r]?n(i,t[r],s):e&&e[r]?e[r]:o;return e&&e.a&&t.o?e=>{const r=n(e,t.o,Wt);return Jt.recomposeSelf(r,i("r",e,J,0)+r.a,i("k",e,Z),i("s",e,Z),i("t",e,Z)).toString()}:t=>Jt.recomposeSelf(i("o",t,Gt,null),i("r",t,J,0),i("k",t,Z),i("s",t,Z),i("t",t,Z)).toString()},"#filter":function(t,e,n,r,i,s,o,u){if(!e.items||!t||!t.length)return null;const l=function(t,e){t=t.map(t=>t&&de[t[0]]?(e.getElementById(t[1]),de[t[0]](e.getElementById(t[1]),t[1],e)):null);const n=t.length;return e=>{for(let r=0;r<n;r++)t[r]&&t[r](e[r].value)}}(e.items,u);return l?(t=function(t,e){return t.map(t=>(t.e=e(t.e),t))}(t,r),e=>{l(n(e,t,he))}):null},"#line":Zt,points:Qt,d:Xt,r:Kt,"#size":Bt,"#radius":Ot,_(t,e){if(Array.isArray(t))for(let n=0;n<t.length;n++)this[t[n]]=e;else this[t]=e}};let me=function(t,e,n=n){let r=!1,i=null;return function(s){r&&clearTimeout(r),r=setTimeout(()=>function(){let s=0,o=n.innerHeight,u=0,l=n.innerWidth,a=t.parentNode;for(;a instanceof Element;){let t=n.getComputedStyle(a);if("visible"!==t.overflowY||"visible"!==t.overflowX){let e=a.getBoundingClientRect();"visible"!==t.overflowY&&(s=Math.max(s,e.top),o=Math.min(o,e.bottom)),"visible"!==t.overflowX&&(u=Math.max(u,e.left),l=Math.min(l,e.right))}if(a===a.parentNode)break;a=a.parentNode}r=!1;let c=t.getBoundingClientRect(),f=Math.min(c.height,Math.max(0,s-c.top)),h=Math.min(c.height,Math.max(0,c.bottom-o)),d=Math.min(c.width,Math.max(0,u-c.left)),g=Math.min(c.width,Math.max(0,c.right-l)),p=(c.height-f-h)/c.height,y=(c.width-d-g)/c.width,m=Math.round(p*y*100);null!==i&&i===m||(i=m,e(m))}(),100)}};class ve{constructor(t,e,n){const r=function(t){var e;const n=t&&1===(null===(e=t.ownerDocument)||void 0===e||null===(e=e.childNodes)||void 0===e?void 0:e.length)&&window.parent!==window,r={el:t,window:window};if(!n)return r;let i;try{i=window.parent.document}catch(t){return r}return r.window=window.parent,r.el=Array.from(i.querySelectorAll("iframe,object")).filter(t=>t.contentWindow===window)[0]||r.el,r}(t);e=Math.max(1,e||1),e=Math.min(e,100),this.el=r.el,this._handlers=[],this.onThresholdChange=n&&n.call?n:()=>{},this.thresholdPercent=e||1,this.currentVisibility=null,this.visibilityCalculator=me(this.el,this.onVisibilityUpdate.bind(this),r.window),this.bindScrollWatchers(),this.visibilityCalculator()}bindScrollWatchers(){let t=this.el.parentNode;for(;t&&(this._handlers.push({element:t,event:"scroll",handler:this.visibilityCalculator}),t.addEventListener("scroll",this.visibilityCalculator),t!==t.parentNode&&t!==document);)t=t.parentNode}onVisibilityUpdate(t){let e=this.currentVisibility>=this.thresholdPercent,n=t>=this.thresholdPercent;if(null===this.currentVisibility||e!==n)return this.currentVisibility=t,void this.onThresholdChange(n);this.currentVisibility=t}destruct(){this._handlers.forEach(t=>{t.element.removeEventListener(t.event,t.handler)})}}class be{static adjustLink(t){var e;const n=t&&1===(null===(e=t.ownerDocument)||void 0===e||null===(e=e.childNodes)||void 0===e?void 0:e.length)&&window.parent!==window,r=null==t?void 0:t.firstElementChild;n&&r&&"a"===r.tagName&&!r.getAttribute("target")&&r.setAttributeNS(null,"target","_parent")}static autoPlay(t,e,n,r=[]){if("click"===n.start){const i=()=>{switch(n.click){case"freeze":return!t._running&&t.reachedToEnd()?t.restart():t.toggle();case"restart":return t.offset>0?t.restart():t.play();case"reverse":return t._running?t.reverse():t.reachedToEnd()?1===t.fill?t.reverse(!0):t.restart():t.play();default:if(t._running)return;return t.reachedToEnd()?t.restart():t.play()}};return r.push({element:e,event:"click",handler:i}),void e.addEventListener("click",i)}if("hover"===n.start){const i=()=>t.reachedToEnd()?t.restart():t._rollingBack?t.reverse():t.play();r.push({element:e,event:"mouseenter",handler:i}),e.addEventListener("mouseenter",i);const s=()=>{switch(n.hover){case"freeze":return t.pause();case"reset":return t.stop();case"reverse":if(t.reverse(),t._running)return;return t.play();default:return}};return r.push({element:e,event:"mouseleave",handler:s}),void e.addEventListener("mouseleave",s)}if("scroll"===n.start){const i=new ve(e,n.scroll||25,function(e){e?t.reachedToEnd()?t.restart():t.play():t.pause()});return void r.push({callback:()=>i.destruct()})}"programmatic"!==n.start&&t.play()}}class we extends St{static build(t){let e=super.build(t,ye);if(!e)return null;let{el:n,options:r,player:i}=e;be.adjustLink(n),i.play()}}return we.init(),we});
(function(s,i,o,w,d,a,b){w[o]=w[o]||{};w[o][s]=w[o][s]||[];w[o][s].push(i);})('5c7f360c',{"root":"euVUeocE7gN1","version":"2025-04-07","animations":[{"elements":{"euVUeocE7gN3":{"transform":{"keys":{"o":[{"t":0,"v":{"x":195,"y":491,"type":"corner"},"e":[0,0,0.58,1]},{"t":500,"v":{"x":16,"y":191,"type":"corner"},"e":[0,0,0.58,1]},{"t":1500,"v":{"x":381,"y":728,"type":"corner"},"e":[0.42,0,1,1]},{"t":2000,"v":{"x":195,"y":491,"type":"corner"}}],"s":[{"t":2000,"v":{"x":1,"y":1},"e":[0.42,0,1,1]},{"t":3000,"v":{"x":10,"y":10}}]}}},"euVUeocE7gN16":{"transform":{"data":{"o":{"x":135.33781,"y":207.03926,"type":"corner"},"t":{"x":-135.33781,"y":-207.03926}},"keys":{"r":[{"t":0,"v":720,"e":[0.415,0.08,0.115,0.955]},{"t":7700,"v":0,"e":[1,0]}]}},"fill":[{"t":0,"v":{"t":"c","v":{"r":255,"g":255,"b":255,"a":1}}},{"t":7700,"v":{"t":"c","v":{"r":210,"g":219,"b":236,"a":1}}}]},"euVUeocE7gN17":{"transform":{"data":{"o":{"x":11.12,"y":29.9,"type":"corner"},"s":{"x":0.3,"y":0.3},"t":{"x":-95.902813,"y":-108.465}},"keys":{"r":[{"t":0,"v":-720,"e":[0.415,0.08,0.115,0.955]},{"t":7700,"v":0,"e":[1,0]}]}}}},"s":"MHDBjZXwwMTQwZTd8MDJEyOXwwMTNhfDAxMzdURfDAxMjZ8MDEzOXwwFMTJlfDAxMzR8MDEzMP2U3ZmZWZjhmNWY1ZjWVmMWU3fDAxMjl8MDEAyZXwwMTM3fDAxMmF8DMDEyOHwwMTM5fDAxMQmV8MDEzNHwwMTMzZTCdmZmY2ZjFlN3wwMTJElfDAxMzl8MDEyYXwwEMTM3RHwwMTI2fDAxMHzl8MDEyZXwwMTM0fDWAxMzN8MDEzOE1lN2ZVmZjZRZjFlN3wwMTJiFfDAxMmV8MDEzMXwwMCTMxZTdBZmZmNlBmMVNllN3wwMTI2fDAxMzFD8MDEzOXwwMTJhfDAxYMzd8MDEzM3wwMTI2fIDAxMzl8MDEyYWU3RmEZmfDAxMmJ8MDEyNnwCwMTMxfDAxMzh8MDEyVYWYxZTd8MDEzOHwwMKTM1fDAxMmF8MDEyYXXwwMTI5TmU3ZmZmNmYIxZTd8MDEyYnwwMTM1TfDAxMzhlN2ZmZjZmNCWY1ZjFlN3wwMTNjZTWdmZnwwMTIwZTdmOGZMiZjdmY2Y2ZjZmZVJmANWY5ZmNMfDAxMmJmNFWZkZmRmZWY4U2ZiZmVNmNXwwMTI4ZmV8MDELyN2Y5fDAxMjd8MDEyBOHwwMTJifDAxMjd8MJDEyN3wwMTJiZmVmYWLZiZmN8MDEyOWZiZmVOMZmJmZWZhZjZ8MDEyFOHwwMTJifDAxMjhBfFDAxMjZmNmZkZmFmYmNZkfDAxMmFVfDAxMmJVmZU98MDEyN3wwMTI2GZmN8MDEyN3wwMTI3fADAxMmJ8MDEyOXwwMTFJiZmVmYUF8MDEyOENF8MDEyYmU3ZjFlN2Y2MZjVlN2YxZTdmNmY2ZGTdmMWU3RWY2ZjdlN2YYxZTdmNkRmOGU3ZjFDPT2U3ZjZmOWU3ZjFlUN2Y2ZmFlN2YxZTdHZYjZmYmU3ZjFlN2Y2ZmWNlN3wwMTIyUnwwMTQWy"}],"options":"MHDAxMDg4MmY4MDgxNmYU3ZjgxMmY0NzJmRjcM5N2M2ZTcxMmY4YQ|"},'__SVGATOR_PLAYER__',window,document)
]]></script>
</svg>