<svg width="24" height="24" viewBox="0 0 24 24" fill="none" xmlns="http://www.w3.org/2000/svg">
<path d="M5 19.75L5 9.42236C5 8.87008 5.44772 8.42236 6 8.42236L8.94678 8.42236L8.94678 4.80701C8.94678 4.50474 9.07992 4.21416 9.33574 4.05315C10.4592 3.3461 12.5741 2.67435 14.6147 4.04466C14.8657 4.21317 15 4.50474 15 4.80701L15 8.42236L18 8.42236C18.5523 8.42236 19 8.87008 19 9.42236L19 19.75C19 20.3023 18.5523 20.75 18 20.75L6 20.75C5.44772 20.75 5 20.3023 5 19.75Z" fill="black"/>
<path d="M10.4081 5.43319L10.4081 8.25L13.4081 8.25L13.4081 5.43319C13.4081 5.20738 13.3362 4.9834 13.177 4.82326C12.2041 3.84476 11.2038 4.30586 10.6448 4.82902C10.4799 4.98332 10.4081 5.20738 10.4081 5.43319Z" fill="white"/>
</svg>
