<svg width="24" height="24" viewBox="0 0 24 24" fill="none" xmlns="http://www.w3.org/2000/svg">
<path fill-rule="evenodd" clip-rule="evenodd" d="M11.9999 3.34375C14.5738 3.34375 16.2784 4.03034 17.2079 5.29785C18.1277 6.55239 18.1772 8.22892 17.8007 9.9502C17.0469 13.396 14.49 17.4689 12.3945 20.1514L11.9999 20.6562L11.6064 20.1514C9.51073 17.4689 6.95292 13.3961 6.19914 9.9502C5.82271 8.22906 5.8723 6.55233 6.79191 5.29785C7.72135 4.03026 9.42617 3.34384 11.9999 3.34375ZM13.832 6.99023C12.8082 5.96677 11.1485 5.96662 10.1249 6.99023C9.10154 8.01387 9.10154 9.67363 10.1249 10.6973C11.1485 11.7209 12.8082 11.7207 13.832 10.6973C14.8556 9.67358 14.8556 8.01392 13.832 6.99023Z" fill="black"/>
</svg>
