<svg width="24" height="24" viewBox="0 0 24 24" fill="none" xmlns="http://www.w3.org/2000/svg">
<path d="M10.4554 3.99414C13.8783 3.99443 16.6528 6.76879 16.653 10.1917C16.6529 11.2176 16.4025 12.1844 15.9607 13.0362C15.7353 13.4708 15.7757 14.0128 16.1244 14.3564L19.7432 17.9216C19.7432 17.9216 19.5103 19.1999 19.0765 19.6257C18.6199 20.0739 17.2473 20.0016 17.2473 20.0016L14.3373 16.1559C14.0229 15.7403 13.4447 15.6446 12.9686 15.8567C12.2006 16.199 11.3505 16.3902 10.4554 16.3903C7.03249 16.3901 4.25712 13.6146 4.25684 10.1917C4.25705 6.76871 7.03245 3.99428 10.4554 3.99414ZM10.4554 6.0891C8.18984 6.08917 6.35286 10.1917 6.35286 10.1917C6.35286 10.1917 8.18971 14.2942 10.4554 14.2943C12.7211 14.2941 14.558 10.1917 14.558 10.1917C14.558 10.1917 12.721 6.08924 10.4554 6.0891Z" fill="black"/>
</svg>
