<svg width="24" height="24" viewBox="0 0 24 24" fill="none" xmlns="http://www.w3.org/2000/svg">
<path d="M13.708 5.05713C14.5358 5.05779 15.2079 5.72916 15.208 6.55713V8.69482H17.8887C18.3189 8.69497 18.7796 8.88167 19.0488 9.29932C19.7543 10.3941 20.445 12.4807 19.0488 14.5073C18.7736 14.9067 18.3209 15.0941 17.8887 15.0942H15.208V17.4429C15.208 18.2709 14.5359 18.9422 13.708 18.9429H5.64453C4.81611 18.9429 4.14259 18.2713 4.14258 17.4429V6.55713C4.14264 5.72876 4.81614 5.05713 5.64453 5.05713H13.708ZM15.208 14.0942H17.8887C18.0465 14.0941 18.1659 14.0265 18.2256 13.9399C19.3023 12.3768 18.7974 10.7534 18.209 9.84033C18.1584 9.76217 18.0482 9.69496 17.8887 9.69482H15.208V14.0942Z" fill="black"/>
</svg>
