<svg width="24" height="24" viewBox="0 0 24 24" fill="none" xmlns="http://www.w3.org/2000/svg">
<path d="M18.5024 10.4675L18.5024 16.4675C18.5024 17.5721 17.607 18.4675 16.5024 18.4675L12.5024 18.4675L12.5024 10.4675L18.5024 10.4675Z" fill="black"/>
<path d="M11.4976 5.53247L11.4976 13.5325L5.49756 13.5325L5.49756 7.53247C5.49756 6.4279 6.39299 5.53247 7.49756 5.53247L11.4976 5.53247Z" fill="black"/>
<path d="M16.5024 5.53247C17.607 5.53247 18.5024 6.4279 18.5024 7.53247L18.5024 9.53247L12.5024 9.53247L12.5024 5.53247L16.5024 5.53247Z" fill="black"/>
<path d="M11.4976 14.4675L11.4976 18.4675L7.49756 18.4675C6.39299 18.4675 5.49756 17.5721 5.49756 16.4675L5.49756 14.4675L11.4976 14.4675Z" fill="black"/>
</svg>
