<svg width="24" height="24" viewBox="0 0 24 24" fill="none" xmlns="http://www.w3.org/2000/svg">
<path d="M18.0087 8.8001L17.0388 6.91256L15.2261 6.00153C15.0898 5.94592 14.9613 5.87617 14.8399 5.8259C14.7186 5.77563 14.5885 5.74976 14.4572 5.74976C14.3259 5.74976 14.1958 5.77563 14.0745 5.8259C13.9531 5.87617 13.8429 5.94985 13.75 6.04273L6.04313 13.7502C5.94987 13.8428 5.87593 13.9529 5.8256 14.0742C5.77528 14.1956 5.74959 14.3257 5.75001 14.4571V17.2502C5.75001 17.5154 5.85536 17.7698 6.0429 17.9573C6.23043 18.1449 6.48479 18.2502 6.75001 18.2502H9.54313C9.6745 18.2506 9.80464 18.225 9.92599 18.1746C10.0473 18.1243 10.1575 18.0504 10.25 17.9571L17.9569 10.2502C18.0498 10.1574 18.1234 10.0471 18.1737 9.92578C18.224 9.80444 18.2499 9.67438 18.2499 9.54304C18.2499 9.4117 18.224 9.28165 18.1737 9.16031C18.1234 9.03897 18.0586 8.89905 18.0087 8.8001ZM15.75 11.0427L12.9569 8.25023L14.4569 6.75023L16.332 7.69785L17.25 9.54273L15.75 11.0427Z" fill="black"/>
</svg>
