<svg width="24" height="24" viewBox="0 0 24 24" fill="none" xmlns="http://www.w3.org/2000/svg">
<path d="M11.8567 4C13.0593 4.40473 13.8267 4.84329 13.8267 5.88354C13.8267 5.89986 13.8242 5.91607 13.8238 5.93229C15.0298 6.14802 15.9951 7.06649 16.1958 8.26096L16.8402 12.0933C16.8596 12.2087 16.9015 12.32 16.9633 12.4208L19.934 15.434C20.3188 16.0616 18.9285 17.1845 18.1676 17.1848H14.9674C14.9617 18.7405 13.6409 20 12.0126 20C10.3842 20 9.06339 18.7405 9.05768 17.1848H5.85848C5.10579 17.1847 3.69173 16.0617 4.05995 15.434L6.96753 12.4272C7.02929 12.3219 7.06881 12.2058 7.08488 12.086L7.58697 8.34926C7.74877 7.14347 8.69052 6.19859 9.88971 5.94976C9.88891 5.92777 9.88682 5.90572 9.88682 5.88354C9.88682 4.84343 10.6526 4.45267 11.8567 4Z" fill="black"/>
</svg>
