<svg width="24" height="24" viewBox="0 0 24 24" fill="none" xmlns="http://www.w3.org/2000/svg">
<path fill-rule="evenodd" clip-rule="evenodd" d="M7.74158 4.83733C8.04819 4.65501 8.4012 4.56549 8.75753 4.57975C9.11378 4.59403 9.45805 4.71128 9.74901 4.9173L10.7312 5.60803C11.079 5.85537 11.4961 5.98653 11.9229 5.98222C12.3507 5.97659 12.7661 5.83503 13.1091 5.57911L14.0682 4.86107C14.3539 4.64761 14.6957 4.52232 15.0516 4.49903C15.4075 4.47571 15.7627 4.55524 16.0738 4.72968C16.3851 4.90386 16.6388 5.16551 16.8047 5.48122C16.9705 5.79685 17.041 6.15404 17.008 6.50901L16.8976 7.70288C16.8583 8.12884 16.9549 8.55612 17.1736 8.92373C17.391 9.29353 17.7199 9.58499 18.1136 9.75548L19.2161 10.2281C19.5437 10.3687 19.8231 10.6016 20.0212 10.8981C20.2192 11.1945 20.3274 11.5418 20.3319 11.8983C20.3366 12.2549 20.2373 12.6059 20.0469 12.9074C19.8564 13.2089 19.5826 13.4486 19.2586 13.5977L18.1697 14.0975C17.781 14.2765 17.4589 14.5747 17.2495 14.948C17.0421 15.3194 16.9571 15.7469 17.0067 16.1694L17.1479 17.3603C17.1899 17.7143 17.1285 18.0728 16.9709 18.3926C16.8133 18.7125 16.5661 18.9799 16.2594 19.1622C15.9529 19.3446 15.5999 19.4339 15.2435 19.4198C14.8871 19.4055 14.5422 19.2888 14.2512 19.0827L13.2723 18.39C12.9234 18.1427 12.505 18.0123 12.0773 18.0178C11.6496 18.0236 11.2348 18.1646 10.892 18.4204L9.93279 19.1385C9.647 19.3518 9.30445 19.4777 8.94858 19.501C8.59297 19.5242 8.2382 19.4439 7.92719 19.2698C7.61598 19.0957 7.36136 18.8345 7.19544 18.5188C7.02958 18.2032 6.95913 17.846 6.99217 17.491L7.10258 16.2972C7.14202 15.8712 7.04611 15.4435 6.8274 15.0758C6.60881 14.708 6.27887 14.4196 5.88575 14.2507L4.7841 13.7776C4.45641 13.6371 4.17628 13.4046 3.97815 13.1082C3.78002 12.8116 3.67217 12.4632 3.66777 12.1066C3.66313 11.7502 3.7622 11.4002 3.95246 11.0988C4.14293 10.7972 4.41694 10.5563 4.74102 10.4072L5.83331 9.90542C6.22176 9.72633 6.54387 9.42932 6.75313 9.05626C6.96073 8.68338 7.04462 8.25427 6.99346 7.83058L6.85231 6.63974C6.81019 6.28554 6.87242 5.92684 7.03008 5.60692C7.18785 5.28697 7.43496 5.01958 7.74158 4.83733ZM10.7975 9.80653C9.61069 10.5122 9.22071 12.0463 9.9264 13.2331C10.6321 14.4199 12.1661 14.8098 13.3529 14.1042C14.5395 13.3985 14.9297 11.8644 14.224 10.6776C13.5184 9.49087 11.9842 9.101 10.7975 9.80653Z" fill="black"/>
</svg>
