<svg width="24" height="24" viewBox="0 0 24 24" fill="none" xmlns="http://www.w3.org/2000/svg">
<path d="M11.5245 5.96352C11.6741 5.50287 12.3258 5.50287 12.4755 5.96353L13.9084 10.3734L18.5451 10.3734C19.0295 10.3734 19.2309 10.9932 18.839 11.2779L15.0878 14.0033L16.5206 18.4131C16.6703 18.8738 16.1431 19.2568 15.7512 18.9721L12 16.2467L8.24877 18.9721C7.85691 19.2568 7.32967 18.8738 7.47935 18.4131L8.91219 14.0033L5.16096 11.2779C4.76911 10.9932 4.9705 10.3734 5.45486 10.3734L10.0916 10.3734L11.5245 5.96352Z" fill="black"/>
<path d="M10.8164 5.77832C11.1997 4.64603 12.8003 4.64603 13.1836 5.77832L14.4775 9.60156L14.5352 9.77148H18.7275C19.9507 9.77152 20.4456 11.3471 19.4424 12.0469L16.25 14.2734L16.0957 14.3809L16.1562 14.5586L17.4082 18.2598C17.7946 19.4024 16.4982 20.3757 15.5088 19.6855L12.1426 17.3379L12 17.2373L11.8574 17.3379L8.49121 19.6855C7.50182 20.3757 6.20538 19.4024 6.5918 18.2598L7.84375 14.5586L7.9043 14.3809L7.75 14.2734L4.55762 12.0469C3.55436 11.3471 4.04928 9.77152 5.27246 9.77148H9.46484L9.52246 9.60156L10.8164 5.77832Z" stroke="black" stroke-width="0.5"/>
</svg>
