<svg width="24" height="24" viewBox="0 0 24 24" fill="none" xmlns="http://www.w3.org/2000/svg">
<path d="M18.5449 6.74079H15.57V6.14581C15.57 5.6724 15.3819 5.21842 15.0472 4.88366C14.7125 4.54891 14.3045 4.45658 13.7851 4.36086L12.0098 4.16956L10.2152 4.36086C9.79297 4.41562 9.19688 4.6951 8.86213 5.02985C8.52739 5.3646 8.43023 5.6724 8.43023 6.14581V6.74079H5.45533C5.29753 6.74079 5.1462 6.80348 5.03462 6.91506C4.92304 7.02664 4.86035 7.17797 4.86035 7.33578C4.86035 7.49358 4.92304 7.64491 5.03462 7.75649C5.1462 7.86808 5.29753 7.93076 5.45533 7.93076H6.81745L6.05031 18.6404C6.05031 18.9561 6.17568 19.2587 6.39884 19.4819C6.622 19.705 6.92467 19.8304 7.24027 19.8304H16.76C17.0756 19.8304 17.3782 19.705 17.6014 19.4819C17.8245 19.2587 17.9499 18.9561 17.9499 18.6404L17.2842 7.93076H18.5449C18.7027 7.93076 18.854 7.86808 18.9656 7.75649C19.0772 7.64491 19.1399 7.49358 19.1399 7.33578C19.1399 7.17797 19.0772 7.02664 18.9656 6.91506C18.854 6.80348 18.7027 6.74079 18.5449 6.74079ZM10.8102 15.6655C10.8102 15.8233 10.7475 15.9747 10.6359 16.0863C10.5243 16.1978 10.373 16.2605 10.2152 16.2605C10.0574 16.2605 9.90604 16.1978 9.79446 16.0863C9.68288 15.9747 9.62019 15.8233 9.62019 15.6655V10.9057C9.62019 10.7479 9.68288 10.5965 9.79446 10.485C9.90604 10.3734 10.0574 10.3107 10.2152 10.3107C10.373 10.3107 10.5243 10.3734 10.6359 10.485C10.7475 10.5965 10.8102 10.7479 10.8102 10.9057V15.6655ZM14.38 15.6655C14.38 15.8233 14.3173 15.9747 14.2058 16.0863C14.0942 16.1978 13.9429 16.2605 13.7851 16.2605C13.6273 16.2605 13.4759 16.1978 13.3643 16.0863C13.2528 15.9747 13.1901 15.8233 13.1901 15.6655V10.9057C13.1901 10.7479 13.2528 10.5965 13.3643 10.485C13.4759 10.3734 13.6273 10.3107 13.7851 10.3107C13.9429 10.3107 14.0942 10.3734 14.2058 10.485C14.3173 10.5965 14.38 10.7479 14.38 10.9057V15.6655ZM14.38 6.74079H9.62019V6.14581C9.62019 5.98801 9.68139 5.85478 9.79297 5.74319C9.87497 5.66119 10.0234 5.6182 10.2152 5.55083L12.0098 5.02985C12.0098 5.02985 13.6209 5.49128 13.7851 5.55083C13.9492 5.61038 14.1111 5.67458 14.2227 5.78616C14.3342 5.89775 14.38 5.98801 14.38 6.14581V6.74079Z" fill="black"/>
</svg>
