<svg width="24" height="24" viewBox="0 0 24 24" fill="none" xmlns="http://www.w3.org/2000/svg">
<path d="M20.0482 15.9123L12.9436 10.5825L14.6064 9.33505C14.6769 9.28231 14.7342 9.21385 14.7737 9.13512C14.8132 9.05638 14.8338 8.96953 14.8339 8.88144C14.8339 8.12955 14.5352 7.40845 14.0035 6.87678C13.4719 6.34511 12.7508 6.04642 11.9989 6.04642C11.247 6.04642 10.5259 6.34511 9.99422 6.87678C9.46255 7.40845 9.16386 8.12955 9.16386 8.88144C9.16386 9.03182 9.2236 9.17604 9.32993 9.28238C9.43626 9.38871 9.58048 9.44845 9.73086 9.44845C9.88124 9.44845 10.0255 9.38871 10.1318 9.28238C10.2381 9.17604 10.2979 9.03182 10.2979 8.88144C10.299 8.45436 10.4608 8.04334 10.751 7.73003C11.0412 7.41673 11.4387 7.22406 11.8645 7.19032C12.2902 7.15657 12.7131 7.28422 13.049 7.54789C13.385 7.81156 13.6095 8.19197 13.6779 8.61353L11.6686 10.1211L11.6488 10.1359L3.94955 15.9123C3.75929 16.055 3.6187 16.2539 3.54768 16.4809C3.47667 16.7078 3.4788 16.9514 3.5538 17.1771C3.6288 17.4028 3.77285 17.5992 3.96559 17.7385C4.15833 17.8779 4.39 17.9531 4.62783 17.9535H19.3699C19.6079 17.9535 19.8399 17.8786 20.033 17.7395C20.2261 17.6003 20.3705 17.4039 20.4457 17.1781C20.521 16.9523 20.5233 16.7086 20.4524 16.4814C20.3814 16.2542 20.2407 16.0551 20.0503 15.9123H20.0482ZM19.3699 16.8195H4.62783L11.9989 11.2912L19.3699 16.8195Z" fill="black"/>
</svg>
