<svg width="24" height="24" viewBox="0 0 24 24" fill="none" xmlns="http://www.w3.org/2000/svg">
<path d="M18.0024 16.4675C18.0024 17.296 17.3309 17.9675 16.5024 17.9675L13.0024 17.9675L13.0024 10.9675L18.0024 10.9675L18.0024 16.4675Z" stroke="black"/>
<path d="M10.9976 13.0325L5.99756 13.0325L5.99756 7.53247C5.99756 6.70404 6.66913 6.03247 7.49756 6.03247L10.9976 6.03247L10.9976 13.0325Z" stroke="black"/>
<path d="M18.0024 7.53247L18.0024 9.03247L13.0024 9.03247L13.0024 6.03247L16.5024 6.03247C17.3309 6.03247 18.0024 6.70404 18.0024 7.53247Z" stroke="black"/>
<path d="M10.9976 17.9675L7.49756 17.9675C6.66913 17.9675 5.99756 17.296 5.99756 16.4675L5.99756 14.9675L10.9976 14.9675L10.9976 17.9675Z" stroke="black"/>
</svg>
