<svg width="24" height="24" viewBox="0 0 24 24" fill="none" xmlns="http://www.w3.org/2000/svg">
<path d="M17.5645 9.02905C17.6045 9.10876 17.6548 9.22007 17.6973 9.32007L17.1924 8.3064L17.5645 9.02905ZM14.8125 6.36304C14.8704 6.39064 14.9407 6.42347 15.0156 6.45483L16.667 7.28491L16.6826 7.31519L16.5576 7.25171L14.6826 6.30444L14.6631 6.29468C14.705 6.31264 14.7515 6.33396 14.8125 6.36304ZM6.25 14.4558C6.24979 14.3907 6.26217 14.3255 6.28711 14.2654C6.31205 14.2053 6.34934 14.151 6.39551 14.1052L6.39648 14.1042L12.6035 7.89624L12.25 8.25073L12.6035 8.60425L15.3965 11.3962L15.75 11.7498L9.89648 17.6033L9.89551 17.6052C9.84966 17.6514 9.79451 17.6877 9.73438 17.7126C9.67431 17.7376 9.60995 17.7499 9.54492 17.7498H6.75C6.61751 17.7498 6.49023 17.6979 6.39648 17.6042C6.30272 17.5105 6.25 17.3824 6.25 17.2498V14.4558Z" stroke="black"/>
</svg>
