<svg width="24" height="24" viewBox="0 0 24 24" fill="none" xmlns="http://www.w3.org/2000/svg">
<path d="M11.7251 13.5693L11.3081 13.499C8.67771 13.058 6.48488 10.0635 6.48486 6.22754L6.48877 5.9502C6.50323 5.44567 6.56013 4.95489 6.64795 4.48145H17.353C17.4566 5.04096 17.5151 5.62527 17.5151 6.22754L17.5083 6.58496C17.3771 10.2485 15.2401 13.0719 12.6919 13.499L12.2749 13.5693V18.1787L12.7104 18.2363C13.4728 18.336 14.1125 18.5888 14.5483 18.9131C14.8094 19.1073 14.9807 19.3142 15.0776 19.5186H8.92139C9.0183 19.3142 9.18964 19.1073 9.45068 18.9131C9.88672 18.5888 10.5271 18.3359 11.2896 18.2363L11.7251 18.1787V13.5693Z" stroke="black"/>
</svg>
