<svg width="24" height="24" viewBox="0 0 24 24" fill="none" xmlns="http://www.w3.org/2000/svg">
<path d="M5.43066 5.11108H7.7344V18.889H6.43066C5.87838 18.889 5.43066 18.4413 5.43066 17.889V5.11108Z" fill="black"/>
<path d="M18.5696 6.50037H19.0696V6.50019L18.5696 6.50037ZM9.25317 18.4545H8.75317V18.9545H9.25317V18.4545ZM9.25317 5.50037V5.00037H8.75317V5.50037H9.25317ZM17.5696 5.50037V6.00037C17.8454 6.00037 18.0695 6.22425 18.0696 6.50055L18.5696 6.50037L19.0696 6.50019C19.0693 5.67225 18.3981 5.00037 17.5696 5.00037V5.50037ZM18.5696 6.50037H18.0696V17.4545H18.5696H19.0696V6.50037H18.5696ZM18.5696 17.4545H18.0696C18.0696 17.7306 17.8457 17.9545 17.5696 17.9545V18.4545V18.9545C18.398 18.9545 19.0696 18.2829 19.0696 17.4545H18.5696ZM17.5696 18.4545V17.9545H9.25317V18.4545V18.9545H17.5696V18.4545ZM9.25317 18.4545H9.75317V5.50037H9.25317H8.75317V18.4545H9.25317ZM9.25317 5.50037V6.00037H17.5696V5.50037V5.00037H9.25317V5.50037Z" fill="black"/>
<path d="M10.9783 7.51685H16.8447" stroke="black"/>
<path d="M10.9783 9.41113H16.8447" stroke="black"/>
<path d="M10.9783 11.3666H15.3945" stroke="black"/>
</svg>
