<svg width="24" height="24" viewBox="0 0 24 24" fill="none" xmlns="http://www.w3.org/2000/svg">
<path d="M12 3.34375C14.5738 3.3438 16.2785 4.03024 17.208 5.29785C18.1277 6.55236 18.1772 8.22899 17.8008 9.9502C17.047 13.3959 14.4901 17.4689 12.3945 20.1514L12 20.6562L11.6064 20.1514C9.51077 17.4689 6.95302 13.3961 6.1992 9.9502C5.82273 8.22892 5.87219 6.55238 6.79198 5.29785C7.72149 4.03026 9.42606 3.34376 12 3.34375ZM12 4.34375C9.57422 4.34376 8.25771 4.9908 7.59862 5.88965C6.93002 6.80169 6.82317 8.12545 7.17577 9.7373C7.83614 12.7556 10.0232 16.3943 12 19.0215C13.9767 16.3943 16.1639 12.7555 16.8242 9.7373C17.1768 8.12553 17.0699 6.80168 16.4014 5.88965C15.7423 4.99076 14.4257 4.3438 12 4.34375ZM10.1465 6.99023C11.1702 5.96667 12.8299 5.96659 13.8535 6.99023C14.877 8.01389 14.877 9.67361 13.8535 10.6973C12.8299 11.7209 11.1702 11.7208 10.1465 10.6973C9.12278 9.67358 9.12278 8.01392 10.1465 6.99023ZM13.1465 7.69727C12.5133 7.06414 11.4867 7.06423 10.8535 7.69727C10.2203 8.33043 10.2203 9.35707 10.8535 9.99023C11.4867 10.6233 12.5133 10.6234 13.1465 9.99023C13.7795 9.3571 13.7795 8.3304 13.1465 7.69727Z" fill="black"/>
</svg>
