<svg width="24" height="24" viewBox="0 0 24 24" fill="none" xmlns="http://www.w3.org/2000/svg">
<path d="M5.28711 8.64359L10.768 12.4802C11.2119 12.7909 11.4338 12.9463 11.6752 13.0064C11.8884 13.0596 12.1114 13.0596 12.3246 13.0064C12.566 12.9463 12.7879 12.7909 13.2317 12.4802L18.7126 8.64359M8.50924 17.3702H15.4905C16.6184 17.3702 17.1823 17.3702 17.6131 17.1507C17.992 16.9576 18.3001 16.6496 18.4931 16.2706C18.7126 15.8398 18.7126 15.2759 18.7126 14.1481V9.85189C18.7126 8.72404 18.7126 8.16011 18.4931 7.72933C18.3001 7.3504 17.992 7.04233 17.6131 6.84925C17.1823 6.62976 16.6184 6.62976 15.4905 6.62976H8.50924C7.38139 6.62976 6.81746 6.62976 6.38668 6.84925C6.00775 7.04233 5.69968 7.3504 5.5066 7.72933C5.28711 8.16011 5.28711 8.72404 5.28711 9.85189V14.1481C5.28711 15.2759 5.28711 15.8398 5.5066 16.2706C5.69968 16.6496 6.00775 16.9576 6.38668 17.1507C6.81746 17.3702 7.38139 17.3702 8.50924 17.3702Z" stroke="black" stroke-linecap="round" stroke-linejoin="round"/>
</svg>
