<svg width="24" height="24" viewBox="0 0 24 24" fill="none" xmlns="http://www.w3.org/2000/svg">
<path d="M11.8613 4.0415C12.3729 4.23093 12.7379 4.41121 12.9805 4.62646C13.2186 4.8377 13.3518 5.09172 13.3535 5.49756C13.3532 5.50105 13.3538 5.50591 13.3535 5.51025C13.3529 5.51867 13.3519 5.53061 13.3516 5.54443L13.3408 5.97021L13.7598 6.04834C14.78 6.2392 15.5969 7.05235 15.7666 8.10889L16.4209 12.1782C16.4505 12.362 16.5143 12.5393 16.6084 12.6997L16.6367 12.7485L16.6758 12.7896L19.6201 15.9136C19.6183 15.9331 19.6123 15.9664 19.5898 16.0181C19.5359 16.142 19.4211 16.3005 19.25 16.4634C19.0825 16.6229 18.884 16.765 18.6924 16.8647C18.4919 16.9691 18.3413 17.0053 18.2617 17.0054H14.5146L14.5127 17.5034C14.5079 18.8799 13.3904 19.9946 12.0127 19.9946C10.635 19.9946 9.51752 18.8799 9.5127 17.5034L9.51074 17.0054H5.76465C5.6875 17.0053 5.53711 16.9698 5.33398 16.8647C5.1402 16.7645 4.93834 16.6211 4.7666 16.4604C4.59158 16.2967 4.47193 16.1367 4.41406 16.0103C4.39064 15.959 4.38259 15.925 4.37988 15.9048L7.25781 12.7935L7.29785 12.7495L7.32715 12.6978C7.42187 12.5287 7.48162 12.3438 7.50586 12.1548L8.01562 8.18701C8.15245 7.12109 8.94882 6.28425 9.96387 6.06396L10.3721 5.97607L10.3574 5.55811C10.3571 5.54803 10.3568 5.53889 10.3564 5.53174C10.3563 5.52811 10.3556 5.52387 10.3555 5.521C10.3553 5.51835 10.3556 5.51621 10.3555 5.51416C10.3549 5.50433 10.3545 5.50316 10.3545 5.50537L10.3604 5.35986C10.3888 5.03797 10.5163 4.83005 10.7246 4.64893C10.9714 4.43441 11.3388 4.25311 11.8613 4.0415Z" stroke="black"/>
</svg>
