<svg width="24" height="24" viewBox="0 0 24 24" fill="none" xmlns="http://www.w3.org/2000/svg">
<path d="M6.71387 10.1914L6.25195 9.99805H6.25293V9.99707C6.25324 9.99634 6.25343 9.99527 6.25391 9.99414C6.2549 9.99178 6.2561 9.98837 6.25781 9.98438C6.26122 9.97642 6.26625 9.96529 6.27246 9.95117C6.28511 9.92243 6.30422 9.88058 6.32812 9.8291C6.37589 9.72628 6.44609 9.58138 6.53711 9.4082C6.71885 9.06244 6.98739 8.5981 7.33301 8.13086C7.99789 7.23201 9.06417 6.16428 10.4551 6.16406C11.8422 6.16415 12.9313 7.22705 13.6172 8.12402C13.9737 8.59032 14.2532 9.0541 14.4434 9.39941C14.5387 9.57266 14.6128 9.71761 14.6631 9.82031C14.6882 9.87166 14.7074 9.91275 14.7207 9.94141C14.7273 9.95558 14.7327 9.96662 14.7363 9.97461C14.7381 9.97852 14.7392 9.98204 14.7402 9.98438C14.7408 9.98555 14.7419 9.98655 14.7422 9.9873V9.98828L14.2852 10.1914M6.71387 10.1914L6.25586 10.3945H6.25684V10.3955C6.25716 10.3962 6.2573 10.3973 6.25781 10.3984C6.25887 10.4008 6.26087 10.4042 6.2627 10.4082C6.26635 10.4163 6.27168 10.428 6.27832 10.4424C6.29172 10.4713 6.31075 10.5128 6.33594 10.5645C6.38649 10.6681 6.46081 10.8144 6.55664 10.9893C6.74793 11.3383 7.02964 11.807 7.3877 12.2783C8.07579 13.1842 9.16829 14.2607 10.5576 14.2607C11.9519 14.2605 13.0154 13.1787 13.6758 12.2705C14.0194 11.798 14.2855 11.3282 14.4658 10.9785C14.5563 10.8031 14.6255 10.6558 14.6729 10.5518C14.6965 10.4998 14.715 10.4587 14.7275 10.4297C14.7338 10.4152 14.7388 10.4036 14.7422 10.3955C14.7439 10.3915 14.7451 10.3881 14.7461 10.3857C14.7466 10.3846 14.7468 10.3836 14.7471 10.3828L14.748 10.3818L14.2852 10.1914M6.71387 10.1914L6.25586 10.3936L6.16895 10.1973L6.25195 9.99902L6.71387 10.1914ZM14.2852 10.1914L14.748 10.3809L14.8291 10.1836L14.7422 9.98926L14.2852 10.1914ZM10.4551 4.49414C13.6017 4.49441 16.153 7.04479 16.1533 10.1914C16.1532 11.1349 15.9225 12.023 15.5166 12.8057C15.2091 13.3985 15.241 14.1884 15.7734 14.7129L19.1953 18.083C19.1695 18.1924 19.1366 18.3276 19.0938 18.4697C19.0414 18.6433 18.9789 18.8194 18.9092 18.9707C18.8361 19.1292 18.7711 19.2247 18.7266 19.2686C18.6984 19.2962 18.6187 19.3467 18.458 19.3936C18.3064 19.4377 18.126 19.4671 17.9434 19.4844C17.7766 19.5002 17.6189 19.504 17.4971 19.5049L14.7363 15.8545C14.2558 15.2194 13.4115 15.1121 12.7646 15.4004C12.0592 15.7147 11.278 15.8906 10.4551 15.8906C7.30845 15.8903 4.7571 13.3381 4.75684 10.1914C4.7572 7.04492 7.30839 4.49448 10.4551 4.49414ZM10.4551 7.16406C11.3334 7.16412 12.1605 7.86477 12.8232 8.73145C13.141 9.14694 13.3934 9.56579 13.5674 9.88184C13.6358 10.006 13.6903 10.1141 13.7324 10.1982C13.6927 10.2835 13.6423 10.3942 13.5771 10.5205C13.4124 10.84 13.1713 11.2621 12.8662 11.6816C12.2291 12.5578 11.4288 13.2605 10.5576 13.2607C9.68121 13.2607 8.85103 12.5525 8.18359 11.6738C7.86394 11.253 7.609 10.8289 7.43359 10.5088C7.36389 10.3816 7.30829 10.2712 7.26562 10.1855C7.30542 10.102 7.35747 9.99559 7.42188 9.87305C7.58773 9.55749 7.83012 9.14011 8.13672 8.72559C8.7763 7.86094 9.5807 7.16429 10.4551 7.16406Z" stroke="black"/>
</svg>
