<svg width="24" height="24" viewBox="0 0 24 24" fill="none" xmlns="http://www.w3.org/2000/svg">
<path d="M10.0762 5.07092L10.0625 5.07483L10.0498 5.07874C9.97151 5.10625 9.8602 5.14315 9.77246 5.17932C9.70555 5.20692 9.61483 5.24877 9.52637 5.31506L9.43945 5.38928C9.24402 5.58472 9.12012 5.84232 9.12012 6.14612V7.24084H14.8799V6.14612C14.8799 6.01648 14.8607 5.8799 14.7988 5.7428C14.7388 5.60997 14.6538 5.50991 14.5762 5.43225C14.3746 5.23083 14.1064 5.13557 13.9551 5.08069C13.8518 5.04333 13.3844 4.90631 12.9756 4.78772C12.9548 4.78168 12.9338 4.77515 12.9131 4.76917L13.7129 4.85608C14.2286 4.95175 14.4837 5.02738 14.6934 5.23694C14.9343 5.47793 15.0703 5.80532 15.0703 6.14612V7.24084H18.5449C18.5701 7.24085 18.5945 7.25044 18.6123 7.26819C18.6301 7.28596 18.6396 7.31045 18.6396 7.33557C18.6396 7.36071 18.63 7.38515 18.6123 7.40295C18.5945 7.42075 18.5701 7.43029 18.5449 7.4303H16.752L16.7852 7.96155L17.4492 18.6461C17.4477 18.8271 17.3761 19.0005 17.248 19.1285C17.1187 19.2579 16.9428 19.3307 16.7598 19.3307H7.24023C7.05725 19.3307 6.88133 19.2579 6.75195 19.1285C6.62327 18.9998 6.5515 18.8251 6.55078 18.6432L7.31641 7.96643L7.35449 7.4303H5.45508C5.42998 7.43023 5.40544 7.4207 5.3877 7.40295C5.37002 7.38515 5.36035 7.36065 5.36035 7.33557C5.36041 7.31047 5.36994 7.28596 5.3877 7.26819C5.40544 7.25044 5.42997 7.24091 5.45508 7.24084H8.93066V6.14612C8.93066 5.94173 8.95155 5.81107 8.98926 5.70959C9.02527 5.61282 9.08793 5.51132 9.21582 5.38342C9.33316 5.2661 9.51514 5.1416 9.72461 5.03967C9.93449 4.93756 10.1363 4.87564 10.2793 4.85706L10.2783 4.85608L11.1211 4.76624L10.0762 5.07092Z" stroke="black"/>
<rect x="9.90576" y="10.2767" width="1.17065" height="5.97559" rx="0.585327" fill="black"/>
<rect x="13.2751" y="10.2767" width="1.17065" height="5.97559" rx="0.585327" fill="black"/>
</svg>
