<svg width="179" height="126" viewBox="0 0 179 126" fill="none" xmlns="http://www.w3.org/2000/svg">
<path d="M141.601 69.8594V73.8066H132.855C134.713 75.8705 135.642 78.5279 135.642 81.7783C135.642 85.3899 134.3 88.3825 131.617 90.7559C128.986 93.0776 125.09 94.2383 119.931 94.2383C116.371 94.2383 113.353 93.6446 110.876 92.458V95.0898C110.876 96.6891 111.675 97.6435 113.274 97.9531L127.825 100.662C130.25 101.126 132.443 101.746 134.403 102.52C136.364 103.242 137.937 104.299 139.124 105.692C140.311 107.034 140.904 108.891 140.904 111.265C140.904 113.793 140.079 116.115 138.428 118.23C136.777 120.397 134.326 122.126 131.075 123.416C127.876 124.757 123.877 125.428 119.079 125.428C114.952 125.428 111.675 124.989 109.25 124.112C106.825 123.287 105.096 122.204 104.064 120.862C103.084 119.521 102.595 118.102 102.595 116.605C102.595 114.748 103.214 112.864 104.452 110.955C105.742 109.098 107.316 107.602 109.173 106.467C107.573 105.848 106.413 105.048 105.69 104.067C104.968 103.087 104.607 102.03 104.606 100.895C104.606 99.8626 104.865 98.9074 105.381 98.0303C105.948 97.1017 106.619 96.1727 107.393 95.2441L109.947 91.9941C106.181 89.8272 104.297 86.4218 104.297 81.7783C104.297 78.0634 105.613 75.0445 108.244 72.7227C110.927 70.4009 114.848 69.2403 120.008 69.2402C122.639 69.2402 124.936 69.5498 126.896 70.1689C128.909 70.7881 130.56 71.6648 131.85 72.7998C133.501 72.5418 135.049 72.129 136.493 71.5615C137.989 70.9424 139.331 70.1168 140.518 69.085L141.601 69.8594ZM110.798 106.931C110.076 107.963 109.483 109.124 109.019 110.414C108.554 111.755 108.321 112.994 108.321 114.129C108.321 117.173 109.25 119.469 111.107 121.017C113.016 122.564 116.009 123.339 120.085 123.339C124.367 123.339 127.593 122.642 129.76 121.249C131.927 119.856 133.01 117.895 133.01 115.367C133.01 113.923 132.468 112.761 131.385 111.884C130.353 111.007 128.573 110.336 126.045 109.872L112.036 107.24L110.798 106.931ZM50.5801 79.9209H59.248V81.4688H50.5029V109.33C50.5029 111.136 50.8894 112.503 51.6631 113.432C52.4885 114.36 53.5207 114.825 54.7588 114.825C55.8423 114.825 56.7975 114.567 57.623 114.051C58.4485 113.483 59.2742 112.735 60.0996 111.807L60.873 112.581C59.8412 114.335 58.4227 115.728 56.6172 116.76C54.8113 117.792 52.6179 118.308 50.0381 118.308C46.736 118.308 44.1563 117.482 42.2988 115.831C40.4931 114.18 39.5899 111.549 39.5898 107.938V81.4688H34.25V80.6943L36.1074 80.3848C37.7068 80.0236 39.0739 79.5076 40.209 78.8369C41.3957 78.1662 42.5573 77.263 43.6924 76.1279L50.0381 69.085H50.8125L50.5801 79.9209ZM19.3486 59.2783C22.0831 59.2784 24.663 59.64 27.0879 60.3623C29.5644 61.0846 31.7059 62.0645 33.5117 63.3027L33.0469 72.5898H32.2734L29.0996 66.7861C28.2225 64.9803 27.3459 63.7155 26.4688 62.9932C25.5916 62.2192 24.5853 61.6777 23.4502 61.3682C22.7795 61.1618 22.1603 61.033 21.5928 60.9814C21.0252 60.8783 20.3029 60.8262 19.4258 60.8262C16.7944 60.8262 14.5754 61.6006 12.7695 63.1484C10.9639 64.6447 10.0605 66.683 10.0605 69.2627C10.0606 71.8938 10.7575 74.009 12.1504 75.6084C13.5435 77.1563 15.5817 78.5498 18.2646 79.7881L21.8252 81.3359C26.778 83.5028 30.3379 85.8244 32.5049 88.3008C34.6719 90.7258 35.7558 93.8735 35.7559 97.7432C35.7559 102.284 34.0272 105.998 30.5703 108.888C27.165 111.725 22.3151 113.145 16.0205 113.145C13.1829 113.145 10.2934 112.784 7.35254 112.062C4.41169 111.391 1.96061 110.488 0 109.353L0.386719 98.8271H1.16113L3.55957 103.857C4.28191 105.302 5.0563 106.592 5.88184 107.728C6.70735 108.811 7.84258 109.662 9.28711 110.281C10.3188 110.797 11.299 111.158 12.2275 111.364C13.2078 111.519 14.2918 111.597 15.4785 111.597C18.6258 111.597 21.1024 110.746 22.9082 109.043C24.7657 107.34 25.6943 105.147 25.6943 102.464C25.6943 99.9359 25.0751 97.975 23.8369 96.582C22.5986 95.1375 20.6122 93.7447 17.8779 92.4033L14.7051 91.0098C10.2678 89.0491 6.78504 86.8046 4.25684 84.2764C1.78023 81.6966 0.541992 78.2914 0.541992 74.0605C0.542018 71.0166 1.31559 68.3855 2.86328 66.167C4.46268 63.9485 6.65541 62.2453 9.44141 61.0586C12.2792 59.8719 15.5821 59.2783 19.3486 59.2783ZM161.522 68.8623C164.876 68.8624 167.74 69.5591 170.113 70.9521C172.486 72.2936 174.292 74.1512 175.53 76.5244C176.82 78.8462 177.465 81.5036 177.465 84.4961C177.465 85.0636 177.439 85.6573 177.388 86.2764C177.336 86.8437 177.233 87.36 177.078 87.8242H154.015C154.066 93.3964 155.047 97.4209 156.956 99.8975C158.917 102.322 161.806 103.535 165.624 103.535C168.204 103.535 170.293 103.122 171.893 102.297C173.492 101.471 174.989 100.259 176.382 98.6592L177.155 99.3555C175.556 102.193 173.415 104.412 170.732 106.012C168.101 107.611 164.928 108.41 161.213 108.41C157.55 108.41 154.299 107.637 151.461 106.089C148.623 104.489 146.404 102.219 144.805 99.2783C143.205 96.3374 142.405 92.8288 142.405 88.7529C142.405 84.5221 143.335 80.9361 145.192 77.9951C147.05 75.0025 149.423 72.7315 152.312 71.1836C155.253 69.6359 158.324 68.8623 161.522 68.8623ZM80.2783 67.4629C84.8703 67.4629 88.4052 68.598 90.8818 70.8682C93.41 73.0868 94.6738 76.7248 94.6738 81.7812V98.8848C94.6738 101.207 95.7578 102.368 97.9248 102.368H99.627L100.324 102.987C99.3439 104.226 98.2599 105.18 97.0732 105.851C95.9381 106.521 94.3127 106.856 92.1973 106.856C89.9272 106.856 88.1217 106.34 86.7803 105.309C85.4904 104.225 84.6384 102.806 84.2256 101.052C82.6778 102.703 81.0787 104.122 79.4277 105.309C77.8283 106.444 75.738 107.012 73.1582 107.012C70.1657 107.012 67.638 106.16 65.5742 104.457C63.5621 102.754 62.5558 100.304 62.5557 97.1055C62.5557 94.6805 63.7939 92.4615 66.2705 90.4492C68.7471 88.3854 72.6427 86.8376 77.957 85.8057C78.7825 85.6509 79.7113 85.4956 80.7432 85.3408C81.7749 85.1345 82.8582 84.928 83.9932 84.7217V78.6074C83.9931 75.0993 83.5547 72.6489 82.6777 71.2559C81.8522 69.8112 80.5363 69.0889 78.7305 69.0889C77.4923 69.0889 76.5123 69.5017 75.79 70.3271C75.0678 71.1011 74.6029 72.4682 74.3965 74.4287L74.2422 75.2803C74.139 77.4984 73.5972 79.1234 72.6172 80.1553C71.6369 81.1871 70.424 81.704 68.9795 81.7041C67.638 81.7041 66.5285 81.2904 65.6514 80.4648C64.7744 79.6394 64.336 78.5305 64.3359 77.1377C64.3359 75.0223 65.0582 73.2416 66.5029 71.7969C67.9992 70.3524 69.9599 69.2692 72.3848 68.5469C74.8096 67.8246 77.4408 67.4629 80.2783 67.4629ZM82.4453 86.5791C81.9295 86.6823 81.3365 86.7855 80.666 86.8887C78.2926 87.5078 76.3832 88.5662 74.9385 90.0625C73.5455 91.5072 72.8486 93.4678 72.8486 95.9443C72.8487 98.0595 73.3392 99.6587 74.3193 100.742C75.2997 101.774 76.4868 102.29 77.8799 102.29C78.9117 102.29 79.8661 102.058 80.7432 101.594C81.6717 101.078 82.7551 100.304 83.9932 99.2725V86.2695L82.4453 86.5791ZM120.008 70.7881C118.099 70.7882 116.654 71.6392 115.674 73.3418C114.694 74.9929 114.203 77.8054 114.203 81.7783C114.203 85.751 114.642 88.5629 115.52 90.2139C116.448 91.8648 117.893 92.6904 119.854 92.6904C121.917 92.6904 123.413 91.8391 124.342 90.1367C125.322 88.4341 125.812 85.5959 125.812 81.623C125.812 77.6502 125.322 74.8641 124.342 73.2646C123.413 71.6136 121.968 70.7881 120.008 70.7881ZM161.29 70.4102C159.794 70.4102 158.503 70.875 157.42 71.8037C156.388 72.6809 155.562 74.2801 154.943 76.6016C154.376 78.8718 154.066 82.0971 154.015 86.2764H167.249C167.765 80.6524 167.559 76.6016 166.63 74.125C165.701 71.6485 163.921 70.4102 161.29 70.4102ZM37.7754 3.17285C44.0697 3.17285 48.6103 4.33372 51.3965 6.65527C54.1827 8.9255 55.5762 11.8157 55.5762 15.3242C55.5761 17.9555 54.5442 20.3546 52.4805 22.5215C50.4682 24.6369 46.9854 26.1336 42.0322 27.0107C47.7078 27.6299 51.8618 29.1256 54.4932 31.499C57.1244 33.8208 58.4395 36.659 58.4395 40.0127C58.4394 41.6636 58.0787 43.3404 57.3564 45.043C56.6341 46.694 55.3958 48.2163 53.6416 49.6094C51.939 51.0025 49.5912 52.1375 46.5986 53.0146C43.6061 53.8402 39.8137 54.2529 35.2217 54.2529H15.5635V53.4795L16.957 52.9375C17.9886 52.5248 18.6847 52.0086 19.0459 51.3896C19.4586 50.7706 19.665 49.9449 19.665 48.9131V8.5127C19.665 7.42939 19.4586 6.57805 19.0459 5.95898C18.6847 5.34001 17.9887 4.84939 16.957 4.48828L15.5635 3.94727V3.17285H37.7754ZM79.8916 14.7051C84.4836 14.7051 88.0185 15.8401 90.4951 18.1104C93.023 20.329 94.2871 23.9664 94.2871 29.0225V46.127C94.2872 48.4484 95.3705 49.6092 97.5371 49.6094H99.2402L99.9365 50.2285C98.9563 51.4666 97.8731 52.4211 96.6865 53.0918C95.5514 53.7625 93.9259 54.0986 91.8105 54.0986C89.5403 54.0986 87.7341 53.5817 86.3926 52.5498C85.103 51.4664 84.2516 50.0479 83.8389 48.2939C82.291 49.9449 80.6911 51.3631 79.04 52.5498C77.4406 53.6849 75.3513 54.2529 72.7715 54.2529C69.7789 54.2529 67.2504 53.4019 65.1865 51.6992C63.1744 49.9966 62.169 47.5455 62.1689 44.3467C62.1689 41.9217 63.4072 39.7027 65.8838 37.6904C68.3604 35.6267 72.2562 34.0788 77.5703 33.0469C78.3957 32.8921 79.3247 32.7378 80.3564 32.583C81.3882 32.3767 82.4715 32.1702 83.6064 31.9639V25.8496C83.6064 22.3412 83.1681 19.8902 82.291 18.4971C81.4655 17.0524 80.1496 16.3301 78.3438 16.3301C77.1056 16.3301 76.1256 16.7429 75.4033 17.5684C74.681 18.3423 74.2162 19.7094 74.0098 21.6699L73.8555 22.5215C73.7523 24.7401 73.2098 26.3655 72.2295 27.3975C71.2492 28.4292 70.0364 28.9453 68.5918 28.9453C67.2506 28.9452 66.1416 28.5323 65.2646 27.707C64.3875 26.8815 63.9482 25.772 63.9482 24.3789C63.9482 22.2637 64.6708 20.4837 66.1152 19.0391C67.6114 17.5945 69.5723 16.5104 71.9971 15.7881C74.422 15.0658 77.0539 14.7051 79.8916 14.7051ZM119.925 14.7051C122.917 14.7051 125.445 15.1946 127.509 16.1748C129.573 17.1551 131.147 18.4454 132.23 20.0449C133.314 21.5927 133.855 23.2183 133.855 24.9209C133.855 26.3654 133.417 27.5007 132.54 28.3262C131.663 29.1 130.528 29.4872 129.135 29.4873C127.638 29.4873 126.426 28.9448 125.497 27.8613C124.568 26.7778 124.027 25.3587 123.872 23.6045C123.82 22.4696 123.846 21.5151 123.949 20.7412C124.052 19.9157 124.052 19.0901 123.949 18.2646C123.743 17.3879 123.407 16.8206 122.943 16.5625C122.531 16.253 121.937 16.0977 121.163 16.0977C118.016 16.0977 115.565 17.4649 113.811 20.1992C112.108 22.9338 111.257 27.2942 111.257 33.2793C111.257 38.4904 112.211 42.4892 114.12 45.2754C116.081 48.0099 119.073 49.377 123.098 49.377C125.523 49.377 127.483 48.9386 128.979 48.0615C130.476 47.1844 131.92 45.8685 133.313 44.1143L134.088 44.7334C132.798 47.7776 130.811 50.1253 128.128 51.7764C125.445 53.4273 122.272 54.2529 118.608 54.2529C115.1 54.2529 111.901 53.505 109.012 52.0088C106.174 50.4609 103.904 48.2419 102.201 45.3525C100.55 42.4116 99.7246 38.8255 99.7246 34.5947C99.7246 30.4155 100.628 26.855 102.434 23.9141C104.291 20.9217 106.742 18.6513 109.786 17.1035C112.882 15.5041 116.262 14.7051 119.925 14.7051ZM150.879 0.696289L150.646 11.5312V49.2998C150.647 51.3636 151.499 52.653 153.201 53.1689L154.284 53.4785V54.2529H135.787V53.4785L136.948 53.0918C138.702 52.5242 139.579 51.2603 139.579 49.2998V7.89355C139.579 6.86183 139.373 6.08816 138.96 5.57227C138.547 5.05636 137.825 4.64354 136.793 4.33398L135.787 4.10156V3.32812L149.95 0L150.879 0.696289ZM175.104 17.8008L172.781 18.4199C171.646 18.7811 170.717 19.2195 169.995 19.7354C169.324 20.1997 168.499 20.8701 167.519 21.7471L158.851 29.874L172.704 49.1445C173.53 50.2796 174.304 51.1572 175.026 51.7764C175.749 52.3954 176.678 52.9115 177.812 53.3242L178.122 53.4785V54.2529H164.5L150.725 34.9043L165.042 21.6699C165.713 21.0508 166.1 20.4061 166.203 19.7354C166.358 19.0131 165.919 18.4971 164.888 18.1875L163.571 17.8008V17.0264H175.104V17.8008ZM31.1201 52.7051H34.9893C38.8589 52.7051 41.7226 51.6732 43.5801 49.6094C45.4891 47.5456 46.4433 44.321 46.4434 39.9355C46.4434 35.8081 45.541 32.8666 43.7354 31.1123C41.9295 29.3581 38.9625 28.4805 34.835 28.4805H31.1201V52.7051ZM82.0586 33.8213C81.5427 33.9245 80.949 34.0277 80.2783 34.1309C77.9052 34.75 75.9963 35.8076 74.5518 37.3037C73.1587 38.7484 72.4619 40.709 72.4619 43.1855C72.4619 45.301 72.9523 46.9009 73.9326 47.9844C74.9128 49.016 76.0994 49.5321 77.4922 49.5322C78.5241 49.5322 79.4793 49.2993 80.3564 48.835C81.285 48.319 82.3684 47.5454 83.6064 46.5137V33.5117L82.0586 33.8213ZM31.1201 26.9326H34.4473C37.9042 26.9326 40.3816 26.1336 41.8779 24.5342C43.4258 22.9347 44.1992 20.1477 44.1992 16.1748C44.1992 12.0473 43.5024 9.10676 42.1094 7.35254C40.7163 5.59827 38.4462 4.7207 35.2988 4.7207H31.1201V26.9326Z" fill="#5D1E21"/>
</svg>
