<svg width="24" height="24" viewBox="0 0 24 24" fill="none" xmlns="http://www.w3.org/2000/svg">
<path d="M8.94678 8.42236L6 8.42236C5.44772 8.42236 5 8.87008 5 9.42236L5 19.75C5 20.3023 5.44772 20.75 6 20.75L18 20.75C18.5523 20.75 19 20.3023 19 19.75L19 9.42236C19 8.87008 18.5523 8.42236 18 8.42236L15 8.42236M8.94678 8.42236L8.94678 4.80701C8.94678 4.50474 9.07992 4.21416 9.33574 4.05315C10.4592 3.3461 12.5741 2.67435 14.6147 4.04466C14.8657 4.21317 15 4.50474 15 4.80701L15 8.42236M8.94678 8.42236L15 8.42236" stroke="black"/>
</svg>
