<svg width="24" height="24" viewBox="0 0 24 24" fill="none" xmlns="http://www.w3.org/2000/svg">
<path d="M14.8033 3.5H9.19672L3 12.5862H5.19672C7.40586 12.5862 9.19672 14.3771 9.19672 16.5862V20.5H14.8033V16.5862C14.8033 14.3771 16.5941 12.5862 18.8033 12.5862H21L14.8033 3.5Z" stroke="black"/>
<path d="M18 20.5C18.0333 20.4011 18.065 20.301 18.095 20.2001C18.315 19.4677 18.4454 18.734 18.4861 18C18.4954 17.8335 18.5 17.6667 18.5 17.5C18.5 16.5997 18.365 15.6995 18.095 14.7994C18.065 14.6991 18.0333 14.5985 18 14.5C17.9667 14.5985 17.935 14.6991 17.905 14.7994C17.635 15.6995 17.5 16.5997 17.5 17.5C17.5 17.6667 17.5046 17.8335 17.5139 18C17.5546 18.734 17.685 19.4677 17.905 20.2001C17.935 20.301 17.9667 20.4011 18 20.5Z" fill="black"/>
</svg>
