<svg width="24" height="24" viewBox="0 0 24 24" fill="none" xmlns="http://www.w3.org/2000/svg">
<path d="M12.0883 14.5412C13.4917 14.5412 14.6295 13.4035 14.6295 12C14.6295 10.5965 13.4917 9.45886 12.0883 9.45886C10.6848 9.45886 9.54712 10.5965 9.54712 12C9.54712 13.4035 10.6848 14.5412 12.0883 14.5412Z" stroke="black" stroke-linecap="round" stroke-linejoin="round"/>
<path d="M13.3088 18.4921L14.305 19.1937C14.6014 19.4026 14.9521 19.5211 15.3144 19.5347C15.6768 19.5483 16.0354 19.4565 16.3466 19.2703C16.6579 19.0843 16.9085 18.8119 17.068 18.4863C17.2276 18.1606 17.2892 17.7956 17.2455 17.4357L17.099 16.226C17.0475 15.7964 17.1329 15.3617 17.343 14.9835C17.5549 14.6036 17.8814 14.3005 18.2761 14.1176L19.3819 13.6066C19.7109 13.4543 19.9887 13.2099 20.1816 12.9028C20.3744 12.5958 20.4741 12.2394 20.4685 11.8769C20.4631 11.5144 20.3527 11.1613 20.1505 10.8603C19.9484 10.5594 19.6633 10.3235 19.3298 10.1815L18.2086 9.70363C17.808 9.5313 17.4725 9.23614 17.2506 8.86073C17.0274 8.48752 16.9282 8.05319 16.9672 7.62003L17.0771 6.40623C17.1097 6.04521 17.037 5.6824 16.8676 5.36189C16.6982 5.04138 16.4393 4.77697 16.1225 4.60068C15.8059 4.4241 15.4448 4.34316 15.083 4.36775C14.7213 4.39231 14.3744 4.52128 14.0846 4.73902L13.1111 5.47127C12.7631 5.73224 12.3415 5.87647 11.9067 5.88324C11.4728 5.88869 11.0484 5.75668 10.6942 5.50607L9.69475 4.8064C9.39832 4.59749 9.0477 4.47902 8.68528 4.46543C8.32293 4.45181 7.96442 4.54363 7.65314 4.72981C7.34187 4.91584 7.09128 5.18818 6.93169 5.51386C6.77218 5.83949 6.71058 6.20442 6.75431 6.56442L6.90075 7.7741C6.95384 8.2047 6.86925 8.64104 6.65911 9.02062C6.44726 9.40048 6.12068 9.7036 5.7261 9.88658L4.61706 10.3994C4.28801 10.5517 4.01022 10.7962 3.81735 11.1032C3.62449 11.4102 3.52483 11.7666 3.53048 12.1292C3.53583 12.4917 3.64627 12.8448 3.84839 13.1458C4.05051 13.4467 4.33564 13.6825 4.66917 13.8246L5.79037 14.3024C6.19041 14.4731 6.52605 14.766 6.74914 15.1393C6.97237 15.5125 7.07162 15.947 7.03257 16.3801L6.92268 17.5938C6.88996 17.9549 6.96274 18.3177 7.13217 18.6382C7.3016 18.9587 7.56043 19.2232 7.87719 19.3994C8.19395 19.5758 8.55502 19.6566 8.9167 19.632C9.27837 19.6074 9.62522 19.4786 9.91519 19.261L10.8887 18.5288C11.2367 18.2678 11.6582 18.1236 12.0931 18.1168C12.5278 18.1101 12.9535 18.2415 13.3088 18.4921Z" stroke="black" stroke-linecap="round" stroke-linejoin="round"/>
</svg>
