<svg width="24" height="24" viewBox="0 0 24 24" fill="none" xmlns="http://www.w3.org/2000/svg">
<path d="M13.4326 10.5283L13.5449 10.873H18.5449L14.7939 13.5986L14.5 13.8125L14.6123 14.1582L16.0449 18.5674L12.2939 15.8418L12 15.6289L11.7061 15.8418L7.95508 18.5674L9.3877 14.1582L9.5 13.8125L9.20605 13.5986L5.45508 10.873H10.4551L10.5674 10.5283L12 6.11816L13.4326 10.5283Z" stroke="black"/>
<path d="M10.8164 5.77832C11.1997 4.64603 12.8003 4.64603 13.1836 5.77832L14.4775 9.60156L14.5352 9.77148H18.7275C19.9507 9.77152 20.4456 11.3471 19.4424 12.0469L16.25 14.2734L16.0957 14.3809L16.1562 14.5586L17.4082 18.2598C17.7946 19.4024 16.4982 20.3757 15.5088 19.6855L12.1426 17.3379L12 17.2373L11.8574 17.3379L8.49121 19.6855C7.50182 20.3757 6.20538 19.4024 6.5918 18.2598L7.84375 14.5586L7.9043 14.3809L7.75 14.2734L4.55762 12.0469C3.55436 11.3471 4.04928 9.77152 5.27246 9.77148H9.46484L9.52246 9.60156L10.8164 5.77832Z" stroke="black" stroke-width="0.5"/>
</svg>
